<svg width="141" height="51" viewBox="0 0 141 51" fill="none" xmlns="http://www.w3.org/2000/svg">
<path d="M14.706 37.62C13.4647 38.2787 12.0587 38.608 10.488 38.608C9.29733 38.608 8.14467 38.418 7.03 38.038C5.91533 37.6833 4.96533 37.1767 4.18 36.518L3.382 38.608H2.888L2.394 29.526L2.736 29.45C3.116 31.1727 3.496 32.5153 3.876 33.478C4.28133 34.4407 4.80067 35.2767 5.434 35.986C6.726 37.43 8.436 38.152 10.564 38.152C12.388 38.152 13.8067 37.6833 14.82 36.746C15.8587 35.7833 16.378 34.4913 16.378 32.87C16.378 31.73 16.0993 30.7673 15.542 29.982C15.01 29.1967 14.2753 28.5253 13.338 27.968C12.4007 27.4107 11.0833 26.7647 9.386 26.03C7.99267 25.422 6.82733 24.8267 5.89 24.244C4.95267 23.636 4.16733 22.8633 3.534 21.926C2.926 20.9633 2.622 19.798 2.622 18.43C2.622 17.0367 2.95133 15.7953 3.61 14.706C4.294 13.5913 5.21867 12.73 6.384 12.122C7.57467 11.4887 8.91733 11.172 10.412 11.172C11.4507 11.172 12.4133 11.3493 13.3 11.704C14.212 12.0587 15.1873 12.6413 16.226 13.452L17.138 11.628H17.632L18.012 19.912L17.632 20.026C17.2267 18.3287 16.7073 16.834 16.074 15.542C14.8073 12.9327 12.8693 11.628 10.26 11.628C8.68933 11.628 7.43533 12.084 6.498 12.996C5.56067 13.8827 5.092 15.0987 5.092 16.644C5.092 17.7587 5.34533 18.696 5.852 19.456C6.384 20.216 7.106 20.8747 8.018 21.432C8.95533 21.9893 10.2727 22.6607 11.97 23.446C13.49 24.13 14.706 24.776 15.618 25.384C16.5553 25.992 17.3027 26.752 17.86 27.664C18.4427 28.5507 18.734 29.6527 18.734 30.97C18.734 32.4393 18.3793 33.7567 17.67 34.922C16.9607 36.062 15.9727 36.9613 14.706 37.62ZM34.9977 33.668L35.1497 33.744L34.9977 34.162C34.491 35.5047 33.731 36.5433 32.7177 37.278C31.7297 38.0127 30.539 38.38 29.1457 38.38C27.7777 38.38 26.5617 38.0253 25.4977 37.316C24.4337 36.6067 23.5977 35.6187 22.9897 34.352C22.407 33.0853 22.1157 31.6287 22.1157 29.982C22.1157 28.3353 22.4324 26.866 23.0657 25.574C23.699 24.282 24.5984 23.2813 25.7637 22.572C26.929 21.8627 28.259 21.508 29.7537 21.508C31.527 21.508 32.8824 22.04 33.8197 23.104C34.7824 24.1427 35.2764 25.6627 35.3017 27.664L35.0737 27.854H24.8137C24.763 28.5127 24.7377 29.032 24.7377 29.412C24.7377 31.7173 25.2064 33.478 26.1437 34.694C27.081 35.8847 28.3857 36.48 30.0577 36.48C30.919 36.48 31.7424 36.29 32.5277 35.91C33.3384 35.5047 34.0477 34.9093 34.6557 34.124L34.9977 33.668ZM29.3357 21.926C28.145 21.926 27.157 22.42 26.3717 23.408C25.5864 24.396 25.0797 25.7387 24.8517 27.436L32.2237 27.17C32.2997 26.866 32.3377 26.3593 32.3377 25.65C32.3377 24.282 32.0717 23.3193 31.5397 22.762C31.033 22.2047 30.2984 21.926 29.3357 21.926ZM41.6041 38.266C40.6414 38.266 39.8434 37.9367 39.2101 37.278C38.6021 36.594 38.2981 35.72 38.2981 34.656C38.2981 33.3893 38.8681 32.376 40.0081 31.616C41.1734 30.856 43.1367 30.1973 45.8981 29.64V26.182C45.8981 24.7127 45.7334 23.6993 45.4041 23.142C45.0747 22.5593 44.5047 22.268 43.6941 22.268C42.9087 22.268 42.2754 22.4833 41.7941 22.914C41.3127 23.3193 41.0721 23.8767 41.0721 24.586L41.1101 25.612C41.1101 26.2453 40.9834 26.752 40.7301 27.132C40.5021 27.4867 40.1727 27.664 39.7421 27.664C39.3621 27.664 39.0454 27.5373 38.7921 27.284C38.5641 27.0307 38.4501 26.7013 38.4501 26.296C38.4501 25.688 38.7414 25.0293 39.3241 24.32C39.9321 23.5853 40.7047 22.9773 41.6421 22.496C42.7821 21.8627 43.9601 21.546 45.1761 21.546C45.8854 21.546 46.4807 21.6853 46.9621 21.964C47.4687 22.2427 47.8361 22.6353 48.0641 23.142C48.1907 23.4713 48.2667 23.8767 48.2921 24.358C48.3427 24.8393 48.3681 25.764 48.3681 27.132V34.39C48.3681 35.302 48.4567 35.9353 48.6341 36.29C48.8114 36.6193 49.1281 36.784 49.5841 36.784C50.2681 36.784 50.7747 36.5433 51.1041 36.062L51.2561 36.138C50.9521 36.7713 50.5467 37.2653 50.0401 37.62C49.5334 37.9493 48.9887 38.114 48.4061 38.114C47.7474 38.114 47.2027 37.924 46.7721 37.544C46.3414 37.1387 46.1007 36.6067 46.0501 35.948L45.9361 35.91C45.3534 36.6447 44.6821 37.2273 43.9221 37.658C43.1621 38.0633 42.3894 38.266 41.6041 38.266ZM43.2381 36.822C43.7701 36.822 44.2641 36.708 44.7201 36.48C45.2014 36.2267 45.5941 35.872 45.8981 35.416V30.058C44.5807 30.3873 43.5547 30.7167 42.8201 31.046C42.1107 31.3753 41.6041 31.768 41.3001 32.224C40.9961 32.68 40.8441 33.25 40.8441 33.934C40.8441 34.8207 41.0594 35.53 41.4901 36.062C41.9207 36.5687 42.5034 36.822 43.2381 36.822ZM59.0698 26.6V37.392L62.7938 37.696V38H53.0278V37.696L56.1438 37.392V12.388L53.0278 12.084V11.78H62.6418C65.6058 11.78 67.8731 12.4133 69.4438 13.68C71.0398 14.9467 71.8378 16.7327 71.8378 19.038C71.8378 21.4953 71.0525 23.37 69.4818 24.662C67.9111 25.954 65.6311 26.6 62.6418 26.6H59.0698ZM59.0698 12.236V26.144H62.5278C64.5798 26.144 66.0745 25.5613 67.0118 24.396C67.9491 23.2307 68.4178 21.3813 68.4178 18.848C68.4178 16.7453 67.9871 15.124 67.1258 13.984C66.2898 12.8187 64.7571 12.236 62.5278 12.236H59.0698ZM85.5036 33.668L85.6556 33.744L85.5036 34.162C84.9969 35.5047 84.2369 36.5433 83.2236 37.278C82.2356 38.0127 81.0449 38.38 79.6516 38.38C78.2836 38.38 77.0676 38.0253 76.0036 37.316C74.9396 36.6067 74.1036 35.6187 73.4956 34.352C72.9129 33.0853 72.6216 31.6287 72.6216 29.982C72.6216 28.3353 72.9382 26.866 73.5716 25.574C74.2049 24.282 75.1042 23.2813 76.2696 22.572C77.4349 21.8627 78.7649 21.508 80.2596 21.508C82.0329 21.508 83.3882 22.04 84.3256 23.104C85.2882 24.1427 85.7822 25.6627 85.8076 27.664L85.5796 27.854H75.3196C75.2689 28.5127 75.2436 29.032 75.2436 29.412C75.2436 31.7173 75.7122 33.478 76.6496 34.694C77.5869 35.8847 78.8916 36.48 80.5636 36.48C81.4249 36.48 82.2482 36.29 83.0336 35.91C83.8442 35.5047 84.5536 34.9093 85.1616 34.124L85.5036 33.668ZM79.8416 21.926C78.6509 21.926 77.6629 22.42 76.8776 23.408C76.0922 24.396 75.5856 25.7387 75.3576 27.436L82.7296 27.17C82.8056 26.866 82.8436 26.3593 82.8436 25.65C82.8436 24.282 82.5776 23.3193 82.0456 22.762C81.5389 22.2047 80.8042 21.926 79.8416 21.926ZM92.1099 38.266C91.1473 38.266 90.3493 37.9367 89.7159 37.278C89.1079 36.594 88.8039 35.72 88.8039 34.656C88.8039 33.3893 89.3739 32.376 90.5139 31.616C91.6793 30.856 93.6426 30.1973 96.4039 29.64V26.182C96.4039 24.7127 96.2393 23.6993 95.9099 23.142C95.5806 22.5593 95.0106 22.268 94.1999 22.268C93.4146 22.268 92.7813 22.4833 92.2999 22.914C91.8186 23.3193 91.5779 23.8767 91.5779 24.586L91.6159 25.612C91.6159 26.2453 91.4893 26.752 91.2359 27.132C91.0079 27.4867 90.6786 27.664 90.2479 27.664C89.8679 27.664 89.5513 27.5373 89.2979 27.284C89.0699 27.0307 88.9559 26.7013 88.9559 26.296C88.9559 25.688 89.2473 25.0293 89.8299 24.32C90.4379 23.5853 91.2106 22.9773 92.1479 22.496C93.2879 21.8627 94.4659 21.546 95.6819 21.546C96.3913 21.546 96.9866 21.6853 97.4679 21.964C97.9746 22.2427 98.3419 22.6353 98.5699 23.142C98.6966 23.4713 98.7726 23.8767 98.7979 24.358C98.8486 24.8393 98.8739 25.764 98.8739 27.132V34.39C98.8739 35.302 98.9626 35.9353 99.1399 36.29C99.3173 36.6193 99.6339 36.784 100.09 36.784C100.774 36.784 101.281 36.5433 101.61 36.062L101.762 36.138C101.458 36.7713 101.053 37.2653 100.546 37.62C100.039 37.9493 99.4946 38.114 98.9119 38.114C98.2533 38.114 97.7086 37.924 97.2779 37.544C96.8473 37.1387 96.6066 36.6067 96.5559 35.948L96.4419 35.91C95.8593 36.6447 95.1879 37.2273 94.4279 37.658C93.6679 38.0633 92.8953 38.266 92.1099 38.266ZM93.7439 36.822C94.2759 36.822 94.7699 36.708 95.2259 36.48C95.7073 36.2267 96.0999 35.872 96.4039 35.416V30.058C95.0866 30.3873 94.0606 30.7167 93.3259 31.046C92.6166 31.3753 92.1099 31.768 91.8059 32.224C91.5019 32.68 91.3499 33.25 91.3499 33.934C91.3499 34.8207 91.5653 35.53 91.9959 36.062C92.4266 36.5687 93.0093 36.822 93.7439 36.822ZM111.628 21.508C112.134 21.508 112.565 21.6853 112.92 22.04C113.274 22.3693 113.452 22.7747 113.452 23.256C113.452 23.6613 113.312 24.0033 113.034 24.282C112.755 24.5607 112.413 24.7 112.008 24.7C111.754 24.7 111.539 24.6493 111.362 24.548C111.21 24.4213 111.045 24.244 110.868 24.016C110.69 23.8133 110.526 23.6613 110.374 23.56C110.247 23.4587 110.082 23.408 109.88 23.408C109.474 23.408 109.056 23.6487 108.626 24.13C108.22 24.6113 107.929 25.1687 107.752 25.802V37.392L110.792 37.696V38H102.964V37.696L105.282 37.392V24.092L103.04 23.256V22.99L107.334 21.508H107.638V24.852C109.056 22.6227 110.386 21.508 111.628 21.508ZM119.472 10.602V37.392L121.79 37.696V38H114.684V37.696L117.002 37.392V13.186L114.76 12.35V12.084L119.168 10.602H119.472Z" fill="white"/>
</svg>
