<svg width="191" height="184" viewBox="0 0 191 184" fill="none" xmlns="http://www.w3.org/2000/svg">
<path d="M89.2016 18.011C88.3094 17.715 87.5871 17.2077 87.0348 16.5735C86.4825 15.9393 86.1851 15.136 86.1426 14.2058C86.1426 14.079 86.1426 13.8676 86.1426 13.5716L89.0742 13.4448C89.0317 14.2481 89.3291 14.8823 89.8814 15.3897C90.4337 15.897 91.241 16.1084 92.2182 16.0661C93.2803 16.0239 94.1301 15.7702 94.6824 15.2628C95.2772 14.7977 95.5321 14.1636 95.4896 13.318C95.4471 12.8106 95.2772 12.3878 94.9798 12.0496C94.6399 11.7114 94.2575 11.4154 93.7902 11.204C93.3228 10.9926 92.6855 10.7389 91.8358 10.443C90.7311 10.0625 89.8814 9.68194 89.2016 9.34371C88.5643 9.00547 87.9695 8.5404 87.5022 7.94849C86.9923 7.35657 86.7374 6.55327 86.6949 5.58084C86.6524 4.52385 86.8649 3.55143 87.3747 2.74812C87.8845 1.90253 88.6068 1.26834 89.584 0.803266C90.5187 0.338192 91.6233 0.0422364 92.8555 -4.29749e-05C94.0876 -0.0423224 95.1497 0.0845159 96.042 0.465031C96.9342 0.803266 97.6564 1.3529 98.1663 2.07165C98.6761 2.7904 98.8886 3.63599 98.8886 4.60841L95.787 4.77753C95.8295 4.05878 95.5746 3.50915 95.0648 3.04407C94.5549 2.579 93.7902 2.40988 92.8555 2.45216C91.8358 2.49444 91.071 2.7904 90.4762 3.25547C89.9239 3.72055 89.6265 4.35474 89.669 5.15804C89.7115 5.62312 89.8814 6.04591 90.1788 6.38415C90.5187 6.72238 90.9011 7.01834 91.3684 7.22974C91.8358 7.44113 92.4731 7.73709 93.3228 8.03304C94.4275 8.45584 95.2772 8.83635 95.957 9.17459C96.6368 9.51283 97.1891 10.0202 97.6989 10.6121C98.2088 11.2463 98.4637 12.0073 98.5062 12.9797C98.5487 13.9944 98.3362 14.8823 97.8264 15.6856C97.3165 16.4889 96.5518 17.1231 95.5746 17.6305C94.5974 18.1378 93.4503 18.3915 92.1757 18.4761C91.071 18.4761 90.0938 18.3492 89.2016 18.011Z" fill="#ffffff"/>
<path d="M115.076 6.84922C115.968 7.99076 116.308 9.38598 116.053 11.0772C116.01 11.4577 115.883 11.9227 115.713 12.4724C115.586 12.8529 115.416 13.2757 115.161 13.783L104.369 12.2187C104.327 12.3455 104.284 12.5147 104.284 12.7683C104.157 13.783 104.327 14.6286 104.879 15.3051C105.431 15.9816 106.196 16.4044 107.216 16.5312C108.788 16.7426 110.105 16.2775 111.167 15.0937L114.311 15.5588C113.461 16.7426 112.357 17.6727 110.954 18.3069C109.552 18.9411 108.065 19.1525 106.408 18.8989C105.219 18.7297 104.242 18.3492 103.392 17.7573C102.585 17.1654 101.99 16.4044 101.607 15.4742C101.225 14.5441 101.14 13.4871 101.31 12.3455C101.395 11.8382 101.522 11.3308 101.692 10.7812C102.16 9.38598 102.882 8.15988 103.817 7.18745C104.751 6.21503 105.856 5.49628 107.131 5.07348C108.405 4.65069 109.722 4.52385 111.082 4.73525C112.824 5.0312 114.141 5.74995 115.076 6.84922ZM113.079 10.6544C113.206 9.72422 112.994 8.92091 112.484 8.28672C111.932 7.65253 111.167 7.27201 110.19 7.1029C109.128 6.93378 108.15 7.14518 107.216 7.69481C106.281 8.24444 105.559 9.04775 105.091 10.147L112.951 11.2886C112.994 11.0349 113.036 10.8235 113.079 10.6544Z" fill="#ffffff"/>
<path d="M120.896 10.3161C122.001 9.55512 123.233 9.09005 124.507 8.92093C125.782 8.75181 127.014 8.87865 128.161 9.30144C129.223 9.68196 130.031 10.2316 130.583 10.9081C131.135 11.5845 131.475 12.3033 131.603 13.022L132.665 11.204L135.469 12.2187L128.161 24.6911L125.357 23.6764L126.462 21.8161C125.655 22.2389 124.72 22.4926 123.658 22.5772C122.638 22.6617 121.576 22.5349 120.556 22.1544C119.536 21.7739 118.729 21.2242 118.134 20.5055C117.497 19.7445 117.157 18.8989 116.987 17.8842C116.86 16.8695 116.987 15.8548 117.37 14.7555C117.54 14.2904 117.794 13.7831 118.049 13.318C118.857 12.0496 119.791 11.0772 120.896 10.3161ZM129.521 16.4467C129.903 15.3474 129.903 14.4173 129.521 13.5294C129.096 12.6838 128.416 12.0496 127.481 11.7114C126.759 11.4577 125.994 11.3731 125.187 11.4577C124.38 11.5423 123.615 11.8382 122.85 12.3456C122.086 12.8106 121.491 13.4871 120.981 14.375C120.811 14.6709 120.641 14.9669 120.514 15.3474C120.089 16.4467 120.089 17.4191 120.514 18.307C120.896 19.1948 121.576 19.7867 122.553 20.125C123.275 20.3786 124.04 20.4632 124.847 20.3786C125.655 20.2941 126.462 19.9559 127.184 19.4908C127.906 19.0257 128.586 18.307 129.096 17.4614C129.223 17.1231 129.393 16.7849 129.521 16.4467Z" fill="#ffffff"/>
<path d="M147.917 24.6489C146.982 25.0294 145.963 25.1562 144.815 25.0294C143.668 24.9026 142.479 24.4375 141.204 23.6765L138.442 21.943L133.472 27.3971L130.965 25.8327L143.243 12.3456L148.512 15.6434C150.041 16.6158 151.019 17.6728 151.358 18.8566C151.741 20.0404 151.571 21.1397 150.849 22.239C150.721 22.4081 150.509 22.704 150.211 23.0423C149.616 23.7187 148.852 24.2684 147.917 24.6489ZM145.453 22.6618C146.303 22.5349 147.025 22.1544 147.662 21.4357C147.832 21.2243 148.002 21.0551 148.129 20.8437C148.512 20.2518 148.597 19.6176 148.427 19.0257C148.257 18.4338 147.747 17.8842 146.897 17.3768L144.136 15.6434L140.014 20.2096L142.776 21.943C143.711 22.5349 144.603 22.7886 145.453 22.6618Z" fill="#ffffff"/>
<path d="M161.683 33.0202C161.768 34.4577 161.216 35.8106 160.068 37.0367C159.814 37.3327 159.431 37.6286 159.006 37.9669C158.709 38.1783 158.284 38.4319 157.774 38.7279L149.829 31.2867C149.744 31.3713 149.617 31.4981 149.447 31.6672C148.767 32.386 148.427 33.1893 148.47 34.0772C148.512 34.965 148.894 35.7261 149.659 36.4025C150.849 37.5018 152.166 37.84 153.738 37.5018L156.075 39.658C154.715 40.1654 153.271 40.2922 151.741 39.9963C150.254 39.7426 148.852 39.0238 147.662 37.8823C146.813 37.079 146.175 36.1911 145.878 35.2187C145.538 34.2463 145.496 33.3161 145.708 32.3437C145.92 31.3713 146.473 30.4411 147.28 29.5955C147.62 29.215 148.045 28.8768 148.512 28.5386C149.702 27.6507 150.976 27.0588 152.336 26.8051C153.695 26.5514 154.97 26.5937 156.245 26.9742C157.519 27.3547 158.666 27.9889 159.686 28.9613C160.918 30.2297 161.598 31.5827 161.683 33.0202ZM157.859 34.965C158.496 34.2885 158.794 33.5275 158.709 32.6819C158.624 31.8363 158.242 31.0753 157.477 30.3988C156.712 29.6801 155.777 29.2573 154.715 29.1727C153.653 29.0882 152.591 29.3419 151.571 29.9761L157.349 35.4301C157.562 35.2187 157.732 35.0919 157.859 34.965Z" fill="#ffffff"/>
<path d="M164.444 39.1507C165.804 39.1507 167.036 39.4467 168.226 40.0386C169.373 40.6305 170.308 41.4338 171.03 42.4485C171.667 43.3786 172.007 44.2665 172.092 45.1121C172.177 46 172.05 46.761 171.71 47.4375L173.622 46.5496L175.321 49.0018L162.15 55.0478L160.451 52.5956L162.405 51.7077C161.513 51.5809 160.578 51.2426 159.686 50.7353C158.794 50.2279 158.029 49.5092 157.392 48.6213C156.797 47.7334 156.414 46.8456 156.372 45.8731C156.287 44.9007 156.499 43.9706 156.924 43.0827C157.392 42.1948 158.071 41.4338 159.049 40.7573C159.473 40.4614 159.941 40.2077 160.451 39.9963C161.768 39.4044 163.127 39.1084 164.444 39.1507ZM168.013 49.0864C168.948 48.4099 169.5 47.6489 169.67 46.7187C169.84 45.7886 169.628 44.9007 169.033 44.0551C168.608 43.4209 168.013 42.9136 167.291 42.5331C166.569 42.1525 165.762 41.9411 164.869 41.8989C163.977 41.8566 163.085 42.068 162.15 42.4908C161.853 42.6176 161.513 42.7867 161.215 42.9981C160.238 43.6746 159.686 44.4779 159.516 45.4081C159.346 46.3382 159.558 47.2261 160.111 48.0717C160.536 48.7058 161.13 49.2132 161.853 49.5514C162.575 49.932 163.382 50.1433 164.317 50.1433C165.209 50.1433 166.144 49.9742 167.036 49.5514C167.376 49.4669 167.673 49.2978 168.013 49.0864Z" fill="#ffffff"/>
<path d="M179.146 58.4724C179.911 58.9797 180.506 59.6985 180.931 60.5864L177.914 61.3897L177.617 60.7132C177.149 59.6985 176.512 58.9797 175.662 58.5992C174.855 58.2187 173.75 58.1764 172.391 58.5147L164.871 60.5018L163.639 57.8382L177.659 54.1176L178.891 56.7812L176.427 57.4577C177.489 57.5845 178.382 57.9228 179.146 58.4724Z" fill="#ffffff"/>
<path d="M187.728 66.2518L168.481 69.2536L167.504 66.4632L186.75 63.4614L187.728 66.2518Z" fill="#ffffff"/>
<path d="M190.999 94.114L178.848 87.2647L172.22 86.6728L171.965 83.7555L178.593 84.3051L189.682 79.3162L189.979 82.5717L181.482 85.954L190.744 90.8162L190.999 94.114Z" fill="#ffffff"/>
<path d="M173.112 97.1581C173.706 96.3125 174.471 95.6783 175.448 95.2555C176.425 94.8327 177.488 94.7059 178.635 94.8327C180.249 95.0018 181.651 95.5092 182.883 96.397C184.116 97.2849 185.05 98.4264 185.688 99.8217C186.325 101.217 186.537 102.697 186.367 104.303C186.24 105.487 185.858 106.544 185.263 107.39C184.668 108.278 183.861 108.912 182.926 109.335C181.949 109.757 180.887 109.926 179.697 109.8C178.082 109.63 176.68 109.081 175.448 108.193C174.216 107.263 173.281 106.121 172.644 104.726C172.007 103.331 171.794 101.809 171.964 100.202C172.134 99.0606 172.517 98.0459 173.112 97.1581ZM175.023 103.627C175.491 104.515 176.171 105.233 177.02 105.783C177.87 106.333 178.847 106.671 179.909 106.798C181.099 106.925 182.034 106.671 182.756 106.079C183.478 105.487 183.903 104.684 183.988 103.669C184.116 102.697 183.903 101.767 183.436 100.921C182.968 100.075 182.289 99.3989 181.396 98.8492C180.504 98.2996 179.527 98.0036 178.465 97.8768C177.318 97.75 176.383 97.9614 175.703 98.511C174.981 99.0606 174.599 99.8217 174.471 100.836C174.344 101.851 174.514 102.781 175.023 103.627Z" fill="#ffffff"/>
<path d="M180.038 128.614L167.25 121.849L168.185 119.059L169.714 119.862C169.332 119.143 169.119 118.34 169.034 117.494C168.949 116.649 169.077 115.803 169.332 115C169.799 113.562 170.564 112.548 171.626 111.956C172.688 111.364 173.92 111.279 175.322 111.744C175.705 111.871 176.13 112.04 176.64 112.294L184.16 116.268L183.267 119.059L176.13 115.296C175.705 115.085 175.365 114.958 175.195 114.873C174.303 114.577 173.538 114.619 172.901 114.958C172.263 115.296 171.796 115.93 171.499 116.818C171.159 117.833 171.201 118.805 171.584 119.735C171.966 120.665 172.688 121.426 173.793 122.018L181.101 125.866L180.038 128.614Z" fill="#ffffff"/>
<path d="M174.854 137.366C174.897 138.296 174.727 139.184 174.259 140.072L171.795 138.169L172.135 137.493C172.645 136.478 172.857 135.548 172.645 134.66C172.475 133.772 171.795 132.926 170.69 131.996L164.572 127.303L165.932 124.682L177.403 133.518L176.044 136.14L174.004 134.575C174.514 135.505 174.769 136.436 174.854 137.366Z" fill="#ffffff"/>
<path d="M156.968 143.031L152.974 147.597L151.529 145.822L157.435 139.015L168.991 153.136L167.079 155.377L156.968 143.031Z" fill="#ffffff"/>
<path d="M147.535 167.976L140.482 155.377L142.777 153.517L143.626 154.996C143.711 154.193 143.924 153.39 144.349 152.629C144.774 151.868 145.283 151.233 145.963 150.684C147.11 149.754 148.3 149.289 149.532 149.373C150.722 149.458 151.826 150.05 152.761 151.191C153.016 151.487 153.271 151.91 153.568 152.375L157.732 159.774L155.438 161.592L151.529 154.574C151.274 154.151 151.104 153.855 150.977 153.728C150.382 153.009 149.702 152.586 148.98 152.544C148.257 152.502 147.535 152.756 146.813 153.347C145.963 154.024 145.453 154.869 145.283 155.842C145.113 156.814 145.283 157.871 145.878 158.971L149.914 166.158L147.535 167.976Z" fill="#ffffff"/>
<path d="M134.918 167.046L128.545 162.268L131.476 160.662L135.768 163.833L136.745 157.829L139.464 156.349L137.68 165.27L144.095 170.048L141.163 171.654L136.915 168.483L135.938 174.487L133.218 175.967L134.918 167.046Z" fill="#ffffff"/>
<path d="M116.988 181.294L115.033 167.004L117.837 166.116L118.092 167.807C118.475 167.088 118.984 166.412 119.622 165.862C120.302 165.312 121.024 164.89 121.831 164.636C123.276 164.171 124.55 164.213 125.612 164.678C126.675 165.143 127.482 166.116 127.949 167.553C128.077 167.934 128.162 168.399 128.247 168.949L129.394 177.362L126.59 178.25L125.485 170.301C125.4 169.836 125.315 169.498 125.272 169.287C124.975 168.399 124.508 167.765 123.87 167.469C123.233 167.173 122.426 167.13 121.576 167.426C120.556 167.765 119.749 168.357 119.239 169.202C118.73 170.048 118.517 171.105 118.687 172.331L119.834 180.491L116.988 181.294Z" fill="#ffffff"/>
<path d="M106.834 182.224C106.112 182.816 105.262 183.197 104.285 183.323L104.37 180.237L105.135 180.11C106.282 179.941 107.132 179.518 107.727 178.884C108.321 178.208 108.661 177.193 108.746 175.755L109.001 168.018L111.933 167.596L111.465 182.013L108.534 182.436L108.619 179.899C108.194 180.871 107.599 181.632 106.834 182.224Z" fill="#ffffff"/>
<path d="M98.4211 183.281L96.5092 172.415L90.2211 183.154L87.1621 183.112L99.9506 162.438L103.01 162.48L98.7609 169.329L101.693 183.366L98.4211 183.281Z" fill="#ffffff"/>
<path d="M63.1147 180.026C62.1375 179.096 61.5002 178.039 61.2028 176.812C60.9054 175.586 60.9904 174.318 61.4577 172.923C61.6701 172.289 61.9251 171.697 62.2225 171.147C63.1147 169.498 64.2618 168.23 65.6214 167.257C67.0234 166.285 68.553 165.735 70.2949 165.524C71.9944 165.312 73.7788 165.524 75.6057 166.116L81.214 167.934L72.5892 183.958L66.981 182.14C65.3665 181.675 64.0919 180.956 63.1147 180.026ZM69.0628 168.23C67.4058 168.948 66.0887 170.217 65.1115 172.077C64.8141 172.627 64.6017 173.134 64.4318 173.642C63.9219 175.164 64.0069 176.474 64.6017 177.573C65.1965 178.673 66.3861 179.518 68.0856 180.068L70.8472 180.956L77.2627 169.033L74.4586 168.145C72.5467 167.469 70.7198 167.511 69.0628 168.23Z" fill="#ffffff"/>
<path d="M46.8854 167.004C46.4606 165.608 46.7155 164.171 47.5652 162.733C47.7776 162.395 48.0326 162.015 48.4149 161.592C48.6699 161.296 49.0098 160.958 49.4346 160.577L58.8242 166.073C58.9091 165.989 58.9941 165.82 59.1216 165.608C59.6314 164.721 59.7589 163.875 59.5464 163.029C59.2915 162.184 58.7392 161.507 57.8894 161C56.4874 160.197 55.0853 160.154 53.6833 160.831L50.9216 159.224C52.1538 158.421 53.5133 157.998 55.0428 157.914C56.5724 157.829 58.0594 158.21 59.5039 159.055C60.5236 159.647 61.3309 160.366 61.8407 161.254C62.393 162.099 62.6479 163.029 62.6479 164.044C62.6479 165.059 62.3505 166.031 61.7557 167.046C61.5008 167.469 61.2034 167.892 60.821 168.357C59.8438 169.498 58.7392 170.344 57.5071 170.893C56.275 171.443 54.9579 171.697 53.6408 171.612C52.3237 171.528 51.0491 171.147 49.8595 170.428C48.245 169.54 47.2678 168.399 46.8854 167.004ZM50.1994 164.213C49.732 165.017 49.6046 165.82 49.8595 166.623C50.1144 167.426 50.6667 168.061 51.5589 168.568C52.4512 169.118 53.4708 169.287 54.533 169.16C55.5952 168.991 56.5724 168.526 57.4221 167.68L50.5818 163.664C50.3693 163.917 50.2419 164.129 50.1994 164.213Z" fill="#ffffff"/>
<path d="M49.5187 153.136C49.9011 153.939 50.071 154.7 50.0286 155.461C49.9861 156.222 49.6887 156.899 49.1788 157.491C49.0938 157.575 48.9664 157.744 48.754 157.871L46.5871 155.969C47.0545 155.504 47.2669 154.996 47.2244 154.362C47.1395 153.728 46.7996 153.136 46.1623 152.586C45.525 152.037 44.9302 151.698 44.3354 151.572C43.7405 151.445 43.2732 151.572 42.8908 152.037C42.5934 152.417 42.4659 152.84 42.6359 153.347C42.7633 153.855 43.1032 154.574 43.5706 155.461C44.0379 156.349 44.3778 157.068 44.5903 157.66C44.8027 158.252 44.8877 158.928 44.8452 159.605C44.8027 160.281 44.5053 160.915 43.9955 161.55C43.4431 162.184 42.8058 162.564 41.9986 162.733C41.2338 162.903 40.3841 162.818 39.5344 162.522C38.6421 162.226 37.7924 161.719 36.9852 161C36.2204 160.323 35.6681 159.647 35.2857 158.886C34.9033 158.125 34.7759 157.364 34.8184 156.603C34.9033 155.842 35.2007 155.165 35.7106 154.574C35.8805 154.404 36.008 154.278 36.093 154.193L38.2173 156.011C37.7074 156.476 37.495 157.026 37.58 157.618C37.665 158.21 38.0048 158.801 38.6421 159.351C39.1945 159.816 39.7468 160.112 40.2991 160.197C40.8514 160.281 41.3188 160.112 41.6587 159.689C41.9986 159.267 42.126 158.801 41.9561 158.252C41.8286 157.702 41.4887 156.983 41.0214 156.053C40.5965 155.208 40.2566 154.489 40.0442 153.897C39.8318 153.305 39.7468 152.671 39.7893 152.037C39.8318 151.403 40.0867 150.768 40.639 150.176C41.1913 149.542 41.8711 149.162 42.6784 149.035C43.4856 148.908 44.3353 148.993 45.2276 149.331C46.1198 149.669 47.012 150.219 47.8617 150.937C48.5415 151.614 49.1363 152.333 49.5187 153.136Z" fill="#ffffff"/>
<path d="M36.0931 145.23C36.3055 145.103 36.4329 145.018 36.4754 144.976C36.7304 144.722 36.8578 144.469 36.8578 144.215C36.8578 143.919 36.6454 143.623 36.3055 143.2L35.1159 141.847L37.2827 140.579L38.8122 142.355C39.5345 143.2 39.9593 144.004 40.0018 144.765C40.0443 145.526 39.7044 146.202 38.9397 146.879C38.6422 147.132 38.3448 147.344 38.0474 147.513L31.1221 151.572L32.2268 152.84L30.1449 154.066L29.0403 152.755L25.9388 154.573L23.9844 152.333L27.0859 150.515L24.8341 147.893L26.916 146.667L29.1677 149.289L36.0931 145.23Z" fill="#ffffff"/>
<path d="M20.4148 145.568C20.3299 145.991 20.1174 146.287 19.735 146.54C19.2252 146.879 18.6729 147.005 18.0356 146.879C17.3983 146.752 16.9309 146.456 16.591 145.991C16.3361 145.61 16.2511 145.23 16.2936 144.807C16.3786 144.426 16.591 144.088 16.9734 143.835C17.4833 143.496 18.0356 143.369 18.6304 143.496C19.2677 143.623 19.735 143.919 20.0749 144.384C20.4148 144.765 20.4998 145.187 20.4148 145.568ZM21.0521 142.397L34.223 136.351L35.9224 138.761L22.7516 144.807L21.0521 142.397Z" fill="#ffffff"/>
<path d="M14.2551 127.811C14.595 126.669 15.4022 125.739 16.7618 125.105C17.1017 124.936 17.569 124.767 18.0789 124.597L26.2788 122.23L27.5534 124.851L19.7783 127.092C19.311 127.261 18.9711 127.346 18.8011 127.472C17.9514 127.895 17.3991 128.445 17.1866 129.121C16.9742 129.798 17.0592 130.559 17.484 131.404C17.9939 132.419 18.7162 133.096 19.6509 133.476C20.5856 133.857 21.6902 133.857 22.9223 133.476L22.8374 133.518L30.6974 131.235L32.0145 133.857L18.0789 137.915L16.7618 135.294L18.3763 134.829C17.569 134.575 16.8467 134.153 16.2095 133.561C15.5722 133.011 15.0198 132.335 14.6374 131.531C14.0851 130.221 13.9152 128.952 14.2551 127.811Z" fill="#ffffff"/>
<path d="M13.9155 120.496C12.6409 119.989 11.5787 119.27 10.729 118.34C9.87927 117.368 9.28446 116.311 8.98705 115.085C8.73214 113.985 8.68965 113.055 8.94457 112.21C9.19949 111.364 9.58187 110.687 10.1342 110.18L8.05235 110.307L7.33008 107.432L21.7755 106.46L22.4978 109.335L20.331 109.461C21.1382 109.884 21.8605 110.518 22.5403 111.322C23.2201 112.125 23.6874 113.055 23.9423 114.112C24.1973 115.127 24.1973 116.142 23.9423 117.072C23.6874 118.002 23.1776 118.805 22.4128 119.482C21.6481 120.158 20.7134 120.623 19.6087 120.919C19.0989 121.046 18.589 121.13 18.0367 121.13C16.5072 121.215 15.1476 121.004 13.9155 120.496ZM14.1704 109.969C13.0658 110.265 12.2585 110.814 11.7487 111.618C11.2813 112.421 11.1539 113.351 11.4088 114.324C11.5787 115.042 11.9611 115.719 12.471 116.353C13.0233 116.945 13.7031 117.452 14.5103 117.79C15.3176 118.129 16.2523 118.255 17.2295 118.213C17.5693 118.213 17.9092 118.171 18.2916 118.044C19.4388 117.748 20.246 117.198 20.7558 116.395C21.2657 115.592 21.3931 114.662 21.1382 113.689C20.9683 112.971 20.5859 112.294 20.0336 111.66C19.4812 111.068 18.8015 110.561 17.9517 110.222C17.102 109.884 16.2098 109.757 15.1901 109.8C14.8927 109.842 14.5528 109.884 14.1704 109.969Z" fill="#ffffff"/>
<path d="M17.1011 99.4834C17.3561 99.4834 17.4835 99.5257 17.5685 99.4834C17.9509 99.4411 18.2058 99.3143 18.3332 99.1029C18.4607 98.8492 18.5457 98.511 18.5032 97.9614L18.3757 96.1434L20.8824 96.397L21.0524 98.7224C21.1374 99.8639 20.9674 100.752 20.5425 101.386C20.1177 102.02 19.4379 102.358 18.4182 102.443C18.0358 102.485 17.6959 102.443 17.3136 102.401L9.32609 101.597L9.45355 103.289L7.03181 103.035L6.90435 101.344L3.33548 100.963L3.12305 98.0036L6.69192 98.3842L6.437 94.9595L8.85874 95.2132L9.11366 98.6801L17.1011 99.4834Z" fill="#ffffff"/>
<path d="M4.27098 90.5202C3.97358 90.8161 3.5912 90.943 3.12385 90.943C2.52903 90.943 2.0192 90.6893 1.59433 90.2242C1.16946 89.7592 0.957031 89.2095 0.957031 88.6599C0.957031 88.1948 1.12698 87.8143 1.42438 87.5606C1.72179 87.2647 2.10417 87.1378 2.57152 87.1801C3.16633 87.1801 3.67617 87.4338 4.10104 87.8989C4.5259 88.3639 4.73834 88.8713 4.73834 89.4632C4.73834 89.886 4.61088 90.2665 4.27098 90.5202ZM6.69272 88.3639L20.8832 91.2812L20.7983 94.2408L6.60775 91.3235L6.69272 88.3639Z" fill="#ffffff"/>
<path d="M9.87932 72.5937C10.814 71.875 12.0461 71.6213 13.5332 71.875C13.9155 71.9595 14.3829 72.0864 14.9352 72.2555L22.9652 75.1728L22.4554 78.0478L14.8078 75.2573C14.3404 75.0882 14.0005 75.0037 13.7881 74.9614C12.8534 74.7923 12.0886 74.9191 11.4938 75.3419C10.899 75.7647 10.5166 76.4412 10.3892 77.3713C10.1767 78.4706 10.3467 79.443 10.899 80.3309C11.4513 81.2187 12.3011 81.8529 13.5332 82.2757H13.4482L21.1383 85.0662L20.6284 87.9412L6.99023 82.9945L7.50007 80.1195L9.07208 80.6691C8.60472 79.9926 8.26483 79.2316 8.0524 78.386C7.83997 77.5404 7.83997 76.6948 8.00991 75.8492C8.3498 74.4117 8.94462 73.3125 9.87932 72.5937Z" fill="#ffffff"/>
<path d="M13.9581 66.5055C13.2359 65.3639 12.811 64.1378 12.6835 62.8694C12.5561 61.6011 12.726 60.375 13.1934 59.2334C13.6183 58.2187 14.1706 57.4154 14.8928 56.8658C15.5726 56.3161 16.2949 56.0202 17.0597 55.9356L15.2752 54.8364L16.4224 52.0882L28.616 59.783L27.4689 62.5312L25.642 61.3474C26.0243 62.193 26.2368 63.1231 26.3217 64.1378C26.3642 65.1948 26.1943 66.2095 25.7694 67.2242C25.3445 68.1967 24.7922 69 24.0275 69.5919C23.2627 70.1838 22.3705 70.522 21.3508 70.6066C20.3311 70.6911 19.3115 70.522 18.2493 70.0992C17.7819 69.8878 17.3146 69.6764 16.8472 69.3382C15.6576 68.6194 14.6804 67.647 13.9581 66.5055ZM20.4161 58.1342C19.3539 57.7114 18.3767 57.6691 17.4845 58.0496C16.5923 58.4301 15.9975 59.0643 15.5726 60.0367C15.2752 60.7555 15.1903 61.4742 15.2327 62.3198C15.3177 63.1231 15.5726 63.9264 16.04 64.6875C16.5073 65.4485 17.1446 66.0827 17.9944 66.6323C18.2918 66.8014 18.5892 66.9706 18.9291 67.1397C20.0337 67.6047 21.0109 67.6047 21.9031 67.2665C22.7954 66.886 23.4327 66.2518 23.815 65.3217C24.1124 64.6029 24.1974 63.8842 24.1549 63.0386C24.07 62.2353 23.815 61.4319 23.3477 60.6709C22.8803 59.9099 22.2005 59.2334 21.3508 58.7261C21.0959 58.4724 20.7985 58.3033 20.4161 58.1342Z" fill="#ffffff"/>
<path d="M29.0413 51.454C29.2112 51.6232 29.3387 51.7077 29.4237 51.75C29.7211 51.9614 30.0185 52.0037 30.2734 51.8768C30.5283 51.7923 30.7832 51.4963 31.0806 51.0735L32.0578 49.5515L33.9272 51.2426L32.6951 53.1875C32.1003 54.1599 31.4205 54.7518 30.7407 55.0478C30.0185 55.3015 29.2537 55.1746 28.404 54.6673C28.0641 54.4559 27.8092 54.2445 27.5542 53.9908L21.6061 48.6213L20.7139 50.0588L18.887 48.4522L19.6942 46.9301L17.0176 44.5202L18.5896 42.0257L21.2662 44.4357L23.0932 41.5184L24.9201 43.125L23.0932 46.0845L29.0413 51.454Z" fill="#ffffff"/>
<path d="M24.0268 36.6562C23.602 36.6985 23.2196 36.614 22.8797 36.318C22.4123 35.9375 22.1149 35.4301 22.0724 34.8382C21.9875 34.204 22.1574 33.6544 22.4973 33.1893C22.7947 32.8088 23.1346 32.6397 23.5595 32.5551C23.9843 32.5129 24.3667 32.6397 24.7066 32.8934C25.174 33.2739 25.4714 33.7812 25.5138 34.3731C25.5988 35.0073 25.4289 35.557 25.089 35.9798C24.7916 36.4026 24.4517 36.614 24.0268 36.6562ZM27.2558 36.318L36.9427 47.057L35.1158 49.3823L25.4714 38.6434L27.2558 36.318Z" fill="#ffffff"/>
<path d="M40.5977 41.8143C39.5781 42.068 38.6009 42.068 37.5812 41.772C36.5615 41.4761 35.6693 40.8842 34.862 40.0386C33.7574 38.897 32.9926 37.5864 32.6527 36.1066C32.2704 34.6268 32.3128 33.147 32.7377 31.7095C33.1626 30.272 33.9698 28.9614 35.117 27.8198C36.0092 26.9742 36.9439 26.4246 37.9636 26.1709C38.9832 25.9173 40.0029 25.9173 41.0226 26.2132C42.0423 26.5092 42.9345 27.0588 43.7842 27.9467C44.8889 29.0882 45.6111 30.4412 45.9935 31.9209C46.3334 33.4007 46.3334 34.8805 45.8661 36.3603C45.4412 37.8401 44.634 39.1084 43.4443 40.25C42.5521 40.9687 41.6174 41.5184 40.5977 41.8143ZM43.3594 35.6415C43.5718 34.6691 43.5293 33.6967 43.2319 32.7242C42.9345 31.7518 42.4247 30.8639 41.7024 30.1029C40.8951 29.2573 40.0029 28.8345 39.0682 28.7923C38.1335 28.75 37.2838 29.1305 36.5615 29.8492C35.8392 30.5257 35.3719 31.3713 35.2019 32.3014C35.032 33.2316 35.117 34.204 35.4144 35.1764C35.7543 36.1489 36.2641 37.0367 37.0289 37.7978C37.8361 38.6434 38.6858 39.0662 39.5781 39.0662C40.4703 39.1084 41.2775 38.7702 41.9998 38.0514C42.6796 37.4173 43.1469 36.614 43.3594 35.6415Z" fill="#ffffff"/>
<path d="M54.4482 15.2206C55.6378 15.432 56.615 16.193 57.4222 17.4614C57.6347 17.7996 57.8471 18.2224 58.0595 18.7298L61.246 26.636L58.7393 28.1581L55.7228 20.6746C55.5103 20.2095 55.3829 19.9136 55.2554 19.7445C54.7456 18.9412 54.1508 18.4761 53.4285 18.307C52.7062 18.1801 51.984 18.3492 51.1767 18.8143C50.242 19.4062 49.6047 20.2095 49.3073 21.182C49.0099 22.1544 49.1374 23.2536 49.6047 24.4375L49.5622 24.3529L52.6213 31.9209L50.1145 33.4853L44.7188 20.0827L47.2255 18.5184L47.8628 20.0827C48.0327 19.2794 48.4151 18.5184 48.9249 17.7996C49.4348 17.0809 50.0296 16.5312 50.7943 16.0662C52.0264 15.3051 53.2586 15.0092 54.4482 15.2206Z" fill="#ffffff"/>
<path d="M70.8056 22.2812C70.4232 22.1121 70.1683 21.7739 70.0408 21.3511C69.8709 20.7592 69.9133 20.2095 70.2108 19.6599C70.5082 19.1103 70.933 18.7297 71.4853 18.5606C71.9102 18.4338 72.3351 18.4338 72.675 18.6452C73.0574 18.8566 73.2698 19.1525 73.4397 19.5753C73.6097 20.1672 73.5672 20.7169 73.2698 21.2665C72.9724 21.8161 72.5475 22.1967 71.9952 22.3658C71.5703 22.4926 71.1455 22.4926 70.8056 22.2812Z" fill="#ffffff"/>
</svg>
