<svg width="97" height="32" viewBox="0 0 97 32" fill="none" xmlns="http://www.w3.org/2000/svg">
<path d="M11.61 25.7C10.63 26.22 9.52 26.48 8.28 26.48C7.34 26.48 6.43 26.33 5.55 26.03C4.67 25.75 3.92 25.35 3.3 24.83L2.67 26.48H2.28L1.89 19.31L2.16 19.25C2.46 20.61 2.76 21.67 3.06 22.43C3.38 23.19 3.79 23.85 4.29 24.41C5.31 25.55 6.66 26.12 8.34 26.12C9.78 26.12 10.9 25.75 11.7 25.01C12.52 24.25 12.93 23.23 12.93 21.95C12.93 21.05 12.71 20.29 12.27 19.67C11.85 19.05 11.27 18.52 10.53 18.08C9.79 17.64 8.75 17.13 7.41 16.55C6.31 16.07 5.39 15.6 4.65 15.14C3.91 14.66 3.29 14.05 2.79 13.31C2.31 12.55 2.07 11.63 2.07 10.55C2.07 9.45 2.33 8.47 2.85 7.61C3.39 6.73 4.12 6.05 5.04 5.57C5.98 5.07 7.04 4.82 8.22 4.82C9.04 4.82 9.8 4.96 10.5 5.24C11.22 5.52 11.99 5.98 12.81 6.62L13.53 5.18H13.92L14.22 11.72L13.92 11.81C13.6 10.47 13.19 9.29 12.69 8.27C11.69 6.21 10.16 5.18 8.1 5.18C6.86 5.18 5.87 5.54 5.13 6.26C4.39 6.96 4.02 7.92 4.02 9.14C4.02 10.02 4.22 10.76 4.62 11.36C5.04 11.96 5.61 12.48 6.33 12.92C7.07 13.36 8.11 13.89 9.45 14.51C10.65 15.05 11.61 15.56 12.33 16.04C13.07 16.52 13.66 17.12 14.1 17.84C14.56 18.54 14.79 19.41 14.79 20.45C14.79 21.61 14.51 22.65 13.95 23.57C13.39 24.47 12.61 25.18 11.61 25.7ZM27.6298 22.58L27.7498 22.64L27.6298 22.97C27.2298 24.03 26.6298 24.85 25.8298 25.43C25.0498 26.01 24.1098 26.3 23.0098 26.3C21.9298 26.3 20.9698 26.02 20.1298 25.46C19.2898 24.9 18.6298 24.12 18.1498 23.12C17.6898 22.12 17.4598 20.97 17.4598 19.67C17.4598 18.37 17.7098 17.21 18.2098 16.19C18.7098 15.17 19.4198 14.38 20.3398 13.82C21.2598 13.26 22.3098 12.98 23.4898 12.98C24.8898 12.98 25.9598 13.4 26.6998 14.24C27.4598 15.06 27.8498 16.26 27.8698 17.84L27.6898 17.99H19.5898C19.5498 18.51 19.5298 18.92 19.5298 19.22C19.5298 21.04 19.8998 22.43 20.6398 23.39C21.3798 24.33 22.4098 24.8 23.7298 24.8C24.4098 24.8 25.0598 24.65 25.6798 24.35C26.3198 24.03 26.8798 23.56 27.3598 22.94L27.6298 22.58ZM23.1598 13.31C22.2198 13.31 21.4398 13.7 20.8198 14.48C20.1998 15.26 19.7998 16.32 19.6198 17.66L25.4398 17.45C25.4998 17.21 25.5298 16.81 25.5298 16.25C25.5298 15.17 25.3198 14.41 24.8998 13.97C24.4998 13.53 23.9198 13.31 23.1598 13.31ZM32.8453 26.21C32.0853 26.21 31.4553 25.95 30.9553 25.43C30.4753 24.89 30.2353 24.2 30.2353 23.36C30.2353 22.36 30.6853 21.56 31.5853 20.96C32.5053 20.36 34.0553 19.84 36.2353 19.4V16.67C36.2353 15.51 36.1053 14.71 35.8453 14.27C35.5853 13.81 35.1353 13.58 34.4953 13.58C33.8753 13.58 33.3753 13.75 32.9953 14.09C32.6153 14.41 32.4253 14.85 32.4253 15.41L32.4553 16.22C32.4553 16.72 32.3553 17.12 32.1553 17.42C31.9753 17.7 31.7153 17.84 31.3753 17.84C31.0753 17.84 30.8253 17.74 30.6253 17.54C30.4453 17.34 30.3553 17.08 30.3553 16.76C30.3553 16.28 30.5853 15.76 31.0453 15.2C31.5253 14.62 32.1353 14.14 32.8753 13.76C33.7753 13.26 34.7053 13.01 35.6653 13.01C36.2253 13.01 36.6953 13.12 37.0753 13.34C37.4753 13.56 37.7653 13.87 37.9453 14.27C38.0453 14.53 38.1053 14.85 38.1253 15.23C38.1653 15.61 38.1853 16.34 38.1853 17.42V23.15C38.1853 23.87 38.2553 24.37 38.3953 24.65C38.5353 24.91 38.7853 25.04 39.1453 25.04C39.6853 25.04 40.0853 24.85 40.3453 24.47L40.4653 24.53C40.2253 25.03 39.9053 25.42 39.5053 25.7C39.1053 25.96 38.6753 26.09 38.2153 26.09C37.6953 26.09 37.2653 25.94 36.9253 25.64C36.5853 25.32 36.3953 24.9 36.3553 24.38L36.2653 24.35C35.8053 24.93 35.2753 25.39 34.6753 25.73C34.0753 26.05 33.4653 26.21 32.8453 26.21ZM34.1353 25.07C34.5553 25.07 34.9453 24.98 35.3053 24.8C35.6853 24.6 35.9953 24.32 36.2353 23.96V19.73C35.1953 19.99 34.3853 20.25 33.8053 20.51C33.2453 20.77 32.8453 21.08 32.6053 21.44C32.3653 21.8 32.2453 22.25 32.2453 22.79C32.2453 23.49 32.4153 24.05 32.7553 24.47C33.0953 24.87 33.5553 25.07 34.1353 25.07ZM46.6341 17V25.52L49.5741 25.76V26H41.8641V25.76L44.3241 25.52V5.78L41.8641 5.54V5.3H49.4541C51.7941 5.3 53.5841 5.8 54.8241 6.8C56.0841 7.8 56.7141 9.21 56.7141 11.03C56.7141 12.97 56.0941 14.45 54.8541 15.47C53.6141 16.49 51.8141 17 49.4541 17H46.6341ZM46.6341 5.66V16.64H49.3641C50.9841 16.64 52.1641 16.18 52.9041 15.26C53.6441 14.34 54.0141 12.88 54.0141 10.88C54.0141 9.22 53.6741 7.94 52.9941 7.04C52.3341 6.12 51.1241 5.66 49.3641 5.66H46.6341ZM67.5028 22.58L67.6228 22.64L67.5028 22.97C67.1028 24.03 66.5028 24.85 65.7028 25.43C64.9228 26.01 63.9828 26.3 62.8828 26.3C61.8028 26.3 60.8428 26.02 60.0028 25.46C59.1628 24.9 58.5028 24.12 58.0228 23.12C57.5628 22.12 57.3328 20.97 57.3328 19.67C57.3328 18.37 57.5828 17.21 58.0828 16.19C58.5828 15.17 59.2928 14.38 60.2128 13.82C61.1328 13.26 62.1828 12.98 63.3628 12.98C64.7628 12.98 65.8328 13.4 66.5728 14.24C67.3328 15.06 67.7228 16.26 67.7428 17.84L67.5628 17.99H59.4628C59.4228 18.51 59.4028 18.92 59.4028 19.22C59.4028 21.04 59.7728 22.43 60.5128 23.39C61.2528 24.33 62.2828 24.8 63.6028 24.8C64.2828 24.8 64.9328 24.65 65.5528 24.35C66.1928 24.03 66.7528 23.56 67.2328 22.94L67.5028 22.58ZM63.0328 13.31C62.0928 13.31 61.3128 13.7 60.6928 14.48C60.0728 15.26 59.6728 16.32 59.4928 17.66L65.3128 17.45C65.3728 17.21 65.4028 16.81 65.4028 16.25C65.4028 15.17 65.1928 14.41 64.7728 13.97C64.3728 13.53 63.7928 13.31 63.0328 13.31ZM72.7184 26.21C71.9584 26.21 71.3284 25.95 70.8284 25.43C70.3484 24.89 70.1084 24.2 70.1084 23.36C70.1084 22.36 70.5584 21.56 71.4584 20.96C72.3784 20.36 73.9284 19.84 76.1084 19.4V16.67C76.1084 15.51 75.9784 14.71 75.7184 14.27C75.4584 13.81 75.0084 13.58 74.3684 13.58C73.7484 13.58 73.2484 13.75 72.8684 14.09C72.4884 14.41 72.2984 14.85 72.2984 15.41L72.3284 16.22C72.3284 16.72 72.2284 17.12 72.0284 17.42C71.8484 17.7 71.5884 17.84 71.2484 17.84C70.9484 17.84 70.6984 17.74 70.4984 17.54C70.3184 17.34 70.2284 17.08 70.2284 16.76C70.2284 16.28 70.4584 15.76 70.9184 15.2C71.3984 14.62 72.0084 14.14 72.7484 13.76C73.6484 13.26 74.5784 13.01 75.5384 13.01C76.0984 13.01 76.5684 13.12 76.9484 13.34C77.3484 13.56 77.6384 13.87 77.8184 14.27C77.9184 14.53 77.9784 14.85 77.9984 15.23C78.0384 15.61 78.0584 16.34 78.0584 17.42V23.15C78.0584 23.87 78.1284 24.37 78.2684 24.65C78.4084 24.91 78.6584 25.04 79.0184 25.04C79.5584 25.04 79.9584 24.85 80.2184 24.47L80.3384 24.53C80.0984 25.03 79.7784 25.42 79.3784 25.7C78.9784 25.96 78.5484 26.09 78.0884 26.09C77.5684 26.09 77.1384 25.94 76.7984 25.64C76.4584 25.32 76.2684 24.9 76.2284 24.38L76.1384 24.35C75.6784 24.93 75.1484 25.39 74.5484 25.73C73.9484 26.05 73.3384 26.21 72.7184 26.21ZM74.0084 25.07C74.4284 25.07 74.8184 24.98 75.1784 24.8C75.5584 24.6 75.8684 24.32 76.1084 23.96V19.73C75.0684 19.99 74.2584 20.25 73.6784 20.51C73.1184 20.77 72.7184 21.08 72.4784 21.44C72.2384 21.8 72.1184 22.25 72.1184 22.79C72.1184 23.49 72.2884 24.05 72.6284 24.47C72.9684 24.87 73.4284 25.07 74.0084 25.07ZM88.1271 12.98C88.5271 12.98 88.8671 13.12 89.1471 13.4C89.4271 13.66 89.5671 13.98 89.5671 14.36C89.5671 14.68 89.4571 14.95 89.2371 15.17C89.0171 15.39 88.7471 15.5 88.4271 15.5C88.2271 15.5 88.0571 15.46 87.9171 15.38C87.7971 15.28 87.6671 15.14 87.5271 14.96C87.3871 14.8 87.2571 14.68 87.1371 14.6C87.0371 14.52 86.9071 14.48 86.7471 14.48C86.4271 14.48 86.0971 14.67 85.7571 15.05C85.4371 15.43 85.2071 15.87 85.0671 16.37V25.52L87.4671 25.76V26H81.2871V25.76L83.1171 25.52V15.02L81.3471 14.36V14.15L84.7371 12.98H84.9771V15.62C86.0971 13.86 87.1471 12.98 88.1271 12.98ZM94.32 4.37V25.52L96.15 25.76V26H90.54V25.76L92.37 25.52V6.41L90.6 5.75V5.54L94.08 4.37H94.32Z" fill="#1b1b1b"/>
</svg>
