<svg width="60" height="60" viewBox="0 0 60 60" fill="none" xmlns="http://www.w3.org/2000/svg">
<g clip-path="url(#clip0_907_349)">
<path d="M0 30V15C0 8.1075 5.6075 2.5 12.5 2.5H47.5C54.3925 2.5 60 8.1075 60 15V30H52.5V27.5C52.5 21.985 48.015 17.5 42.5 17.5H37.5C34.5 17.5 31.835 18.855 30 20.955C28.165 18.855 25.5 17.5 22.5 17.5H17.5C11.985 17.5 7.5 21.985 7.5 27.5V30H0ZM22.5 22.5H17.5C14.7425 22.5 12.5 24.7425 12.5 27.5V30H27.5V27.5C27.5 24.7425 25.2575 22.5 22.5 22.5ZM47.5 27.5C47.5 24.7425 45.2575 22.5 42.5 22.5H37.5C34.7425 22.5 32.5 24.7425 32.5 27.5V30H47.5V27.5ZM0 35V50C0 51.3825 1.12 52.5 2.5 52.5C3.88 52.5 5 51.3825 5 50V45H55V50C55 51.3825 56.1175 52.5 57.5 52.5C58.8825 52.5 60 51.3825 60 50V35H0Z" fill="#AA8453"/>
</g>
<defs>
<clipPath id="clip0_907_349">
<rect width="60" height="60" fill="white"/>
</clipPath>
</defs>
</svg>
