<svg width="60" height="60" viewBox="0 0 60 60" fill="none" xmlns="http://www.w3.org/2000/svg">
<g clip-path="url(#clip0_907_359)">
<path d="M58.2452 27.695C56.8077 25.9925 54.7102 25.02 52.4877 25.02H30.0127V17.5175H60.0002V12.5175H30.0127V7.69502L59.9577 6.26502L59.7177 1.27002L7.37774 3.77002L7.61774 8.76502L12.5152 8.53002V12.5175H7.49774V17.5175H12.5152V25.02H7.53774C5.31524 25.02 3.21524 25.9975 1.77774 27.695C0.357737 29.375 -0.247263 31.5775 0.117737 33.7325C2.06274 45.235 9.78274 55.455 19.4502 60.02H40.5752C50.2427 55.455 57.9627 45.235 59.9077 33.7325C60.2727 31.575 59.6677 29.375 58.2452 27.695ZM25.0127 25.02H17.5127V17.5175H25.0127V25.02ZM25.0127 12.5175H17.5127V8.29252L25.0127 7.93502V12.5175Z" fill="#AA8453"/>
</g>
<defs>
<clipPath id="clip0_907_359">
<rect width="60" height="60" fill="white"/>
</clipPath>
</defs>
</svg>
