<svg width="40" height="40" viewBox="0 0 40 40" fill="none" xmlns="http://www.w3.org/2000/svg">
<g clip-path="url(#clip0_736_991)">
<path d="M20 40C8.97167 40 0 31.0283 0 20C0 8.97167 8.97167 0 20 0C31.0283 0 40 8.97167 40 20C40 31.0283 31.0283 40 20 40ZM20 1.66667C9.89167 1.66667 1.66667 9.89167 1.66667 20C1.66667 30.1083 9.89167 38.3333 20 38.3333C30.1083 38.3333 38.3333 30.1083 38.3333 20C38.3333 9.89167 30.1083 1.66667 20 1.66667ZM28.3333 20.8333C28.3333 20.3733 27.96 20 27.5 20H20V9.16667C20 8.70667 19.6267 8.33333 19.1667 8.33333C18.7067 8.33333 18.3333 8.70667 18.3333 9.16667V20.8333C18.3333 21.2933 18.7067 21.6667 19.1667 21.6667H27.5C27.96 21.6667 28.3333 21.2933 28.3333 20.8333Z" fill="#1B1B1B"/>
</g>
<defs>
<clipPath id="clip0_736_991">
<rect width="40" height="40" fill="white"/>
</clipPath>
</defs>
</svg>
