<svg width="60" height="60" viewBox="0 0 60 60" fill="none" xmlns="http://www.w3.org/2000/svg">
<g clip-path="url(#clip0_907_355)">
<path d="M57.5 52.5H32.5V47.5H50.8575C54.52 47.5 57.5 44.52 57.5 40.8575C57.5 26.1575 46.5725 13.8825 32.5 12.6125V7.5H35C36.38 7.5 37.5 6.38 37.5 5C37.5 3.62 36.38 2.5 35 2.5H25C23.62 2.5 22.5 3.62 22.5 5C22.5 6.38 23.62 7.5 25 7.5H27.5V12.61C13.4275 13.8825 2.5 26.155 2.5 40.8575C2.5 44.52 5.48 47.5 9.1425 47.5H27.5V52.5H2.5C1.12 52.5 0 53.62 0 55C0 56.38 1.12 57.5 2.5 57.5H57.5C58.88 57.5 60 56.38 60 55C60 53.62 58.88 52.5 57.5 52.5Z" fill="#AA8453"/>
</g>
<defs>
<clipPath id="clip0_907_355">
<rect width="60" height="60" fill="white"/>
</clipPath>
</defs>
</svg>
