<svg width="40" height="40" viewBox="0 0 40 40" fill="none" xmlns="http://www.w3.org/2000/svg">
<g clip-path="url(#clip0_1110_249)">
<path d="M38.3546 40.0001C26.1182 40.0001 13.8818 40.0001 1.6454 40.0001C0.791461 39.7605 0.239521 39.2188 0 38.3542C0 29.9167 0 21.4792 0 13.0417C0.124967 12.9376 0.239521 12.8126 0.374902 12.7188C2.15569 11.4584 3.93647 10.1876 5.72767 8.93756C5.95678 8.78131 6.01927 8.61464 6.00885 8.35423C5.99844 7.20839 5.99844 6.06256 6.00885 4.91673C6.00885 3.84381 6.51914 3.33339 7.58136 3.33339C9.4767 3.33339 11.3825 3.33339 13.2778 3.32298C13.4757 3.32298 13.6944 3.26048 13.8506 3.15631C14.8607 2.45839 15.8605 1.76048 16.8394 1.03131C18.7035 -0.34369 21.2236 -0.354107 23.1086 1.00006C24.0875 1.70839 25.0664 2.41673 26.0661 3.10423C26.264 3.23964 26.5348 3.32298 26.7847 3.32298C28.68 3.34381 30.5858 3.33339 32.4811 3.33339C33.4496 3.33339 33.9807 3.86464 33.9807 4.82298C33.9807 6.02089 33.9703 7.21881 33.9911 8.41673C33.9911 8.57298 34.1057 8.79173 34.2307 8.88548C35.9906 10.1563 37.7714 11.4063 39.5418 12.6563C39.8438 12.8751 39.9896 13.1146 39.9896 13.5001C39.9792 21.6042 39.9792 29.7188 39.9792 37.823C39.9792 38.0209 39.9688 38.2188 39.9271 38.4063C39.7605 39.2813 39.1565 39.7501 38.3546 40.0001ZM7.35225 4.68756C7.34184 4.78131 7.33142 4.84381 7.33142 4.90631C7.33142 9.18756 7.33142 13.4688 7.34184 17.7501C7.34184 17.8959 7.43556 18.073 7.55012 18.1667C10.8305 20.9063 14.1005 23.6355 17.3913 26.3542C18.9534 27.6459 20.9737 27.6459 22.5566 26.3855C22.9732 26.0521 23.3793 25.7084 23.7855 25.3646C26.6389 22.9896 29.4923 20.6251 32.3457 18.2605C32.5644 18.073 32.6582 17.8959 32.6582 17.6042C32.6477 13.4376 32.6477 9.27089 32.6477 5.10423C32.6477 4.96881 32.6477 4.82298 32.6477 4.67714C24.202 4.68756 15.798 4.68756 7.35225 4.68756ZM37.4694 38.6563C32.8248 34.8021 28.2635 31.0105 23.6917 27.2084C22.6295 28.1563 21.4111 28.6667 20.0156 28.6667C18.5993 28.6667 17.3809 28.1459 16.3083 27.2084C11.7261 31.0209 7.1648 34.8126 2.53059 38.6563C14.215 38.6563 25.785 38.6563 37.4694 38.6563ZM1.3434 37.9063C6.01927 34.0209 10.6222 30.1876 15.2669 26.3334C10.6222 22.4688 6.00885 18.6355 1.3434 14.7605C1.3434 22.5105 1.3434 30.1563 1.3434 37.9063ZM38.6462 14.7605C33.9703 18.6459 29.3674 22.4792 24.7227 26.3334C29.3674 30.198 33.9807 34.0313 38.6462 37.8959C38.6462 30.1563 38.6462 22.5001 38.6462 14.7605ZM38.2296 13.3751C36.8133 12.3751 35.4283 11.3855 34.012 10.3855C34.012 12.5834 34.012 14.698 34.012 16.8855C35.4387 15.698 36.8133 14.5521 38.2296 13.3751ZM5.98802 10.3751C4.5509 11.3959 3.16584 12.3751 1.75996 13.3751C3.18667 14.5626 4.56131 15.698 5.98802 16.8855C5.98802 14.6876 5.98802 12.573 5.98802 10.3751ZM16.0791 3.31256C18.693 3.31256 21.2965 3.31256 23.9104 3.31256C23.9313 3.28131 23.9417 3.25006 23.9625 3.21881C23.1815 2.70839 22.4212 2.14589 21.5985 1.68756C20.9529 1.33339 20.2239 1.28131 19.4741 1.36464C18.0682 1.53131 17.1518 2.54173 16.0791 3.31256Z" fill="#1B1B1B"/>
<path d="M21.3584 18.0421C20.6711 18.6671 19.89 19.0421 18.984 19.1671C17.1616 19.4171 15.6203 18.1879 15.4641 16.3546C15.2871 14.2296 16.568 11.9275 18.4633 10.9692C19.6505 10.365 21.1189 10.6046 22.0665 11.5629C22.1603 11.6567 22.2123 11.7713 22.3477 11.9484C22.4102 11.6567 22.4414 11.49 22.4831 11.3338C22.5768 10.9067 22.8892 10.6671 23.2537 10.74C23.6495 10.8129 23.8786 11.1567 23.7848 11.5942C23.4099 13.4171 23.0246 15.2296 22.6393 17.0525C22.5247 17.5942 22.6601 17.8025 23.2225 17.8338C23.9202 17.8754 24.5034 17.6359 24.9512 17.0942C26.2113 15.5734 26.4404 13.8442 25.7947 12.0317C25.1387 10.2192 23.8265 9.08377 21.9103 8.75044C18.255 8.11502 14.4539 10.5109 13.423 14.0734C12.6002 16.9275 14.204 19.8963 17.047 20.7504C19.0986 21.365 21.1813 21.5525 23.285 21.0421C24.6596 20.7088 25.8468 20.0421 26.7632 18.9379C27.0027 18.6567 27.2839 18.5421 27.6276 18.7088C27.94 18.8546 28.0546 19.1359 27.9712 19.4588C27.94 19.6046 27.8359 19.74 27.7317 19.8546C26.4925 21.3025 24.8991 22.1046 23.0559 22.4484C20.6815 22.8859 18.3488 22.6775 16.1098 21.8234C12.3711 20.3963 10.7778 16.0213 12.7044 12.3754C14.1519 9.63586 16.3909 7.84419 19.5151 7.38586C22.8372 6.90669 25.5656 8.24002 26.8361 11.0421C27.9296 13.4588 27.7005 15.8129 25.9926 17.9275C25.274 18.8129 24.3159 19.2088 23.1704 19.1671C22.3685 19.1359 21.7645 18.7921 21.3584 18.0421ZM16.7867 15.5734C16.7762 17.115 17.4532 17.8859 18.557 17.865C19.1819 17.8546 19.7651 17.6671 20.2441 17.24C21.0356 16.5317 21.6916 15.7504 21.8583 14.615C21.9416 14.0734 21.8895 13.6254 21.6291 13.1671C21.5146 12.9692 21.3792 12.7713 21.2334 12.5942C20.6919 11.9484 19.7859 11.7504 19.0465 12.1671C17.6094 12.9796 16.9429 14.2713 16.7867 15.5734Z" fill="#1B1B1B"/>
</g>
<defs>
<clipPath id="clip0_1110_249">
<rect width="40" height="40" fill="white"/>
</clipPath>
</defs>
</svg>
