<svg width="40" height="40" viewBox="0 0 40 40" fill="none" xmlns="http://www.w3.org/2000/svg">
<g clip-path="url(#clip0_1110_257)">
<path d="M40 11.7254C40 9.50378 39.11 7.38711 37.49 5.76711C29.8083 -1.91456 10.1917 -1.91456 2.51 5.76711C0.89 7.38711 0 9.50378 0 11.7238V16.7388L6.92333 16.6788L2.54167 24.7071C0.878333 27.7588 0 31.2088 0 34.6838V40.0004H40V34.6838C40 31.2088 39.1217 27.7588 37.4567 24.7071L33.07 16.6671H40V11.7254ZM35.9933 25.5054C37.525 28.3138 38.3333 31.4871 38.3333 34.6838V38.3338H1.66667V34.6838C1.66667 31.4871 2.475 28.3121 4.005 25.5054L8.82833 16.6638H8.84333L11.0467 12.3754C11.885 11.8938 15.4767 10.0004 19.9983 10.0004C24.52 10.0004 28.1117 11.8938 28.95 12.3754L31.1567 16.6671H31.17L35.99 25.5054H35.9933ZM38.3333 15.0004H32.175L30.2217 11.1988C30.2217 11.1988 25.655 8.33378 20 8.33378C14.345 8.33378 9.77833 11.1988 9.77833 11.1988L7.82167 15.0038L1.66667 15.0571V11.7238C1.66667 9.94878 2.38333 8.25211 3.68833 6.94544C7.195 3.43878 13.5967 1.68544 20 1.68544C26.4033 1.68544 32.8067 3.43878 36.3117 6.94544C37.6167 8.25044 38.335 9.94711 38.3333 11.7238V15.0004ZM20 15.0004C14.485 15.0004 10 19.4854 10 25.0004C10 30.5154 14.485 35.0004 20 35.0004C25.515 35.0004 30 30.5154 30 25.0004C30 19.4854 25.515 15.0004 20 15.0004ZM20 33.3338C15.405 33.3338 11.6667 29.5954 11.6667 25.0004C11.6667 20.4054 15.405 16.6671 20 16.6671C24.595 16.6671 28.3333 20.4054 28.3333 25.0004C28.3333 29.5954 24.595 33.3338 20 33.3338ZM20 21.6671C18.1617 21.6671 16.6667 23.1621 16.6667 25.0004C16.6667 26.8388 18.1617 28.3338 20 28.3338C21.8383 28.3338 23.3333 26.8388 23.3333 25.0004C23.3333 23.1621 21.8383 21.6671 20 21.6671ZM20 26.6671C19.08 26.6671 18.3333 25.9188 18.3333 25.0004C18.3333 24.0821 19.08 23.3338 20 23.3338C20.92 23.3338 21.6667 24.0821 21.6667 25.0004C21.6667 25.9188 20.92 26.6671 20 26.6671Z" fill="#1B1B1B"/>
</g>
<defs>
<clipPath id="clip0_1110_257">
<rect width="40" height="40" fill="white"/>
</clipPath>
</defs>
</svg>
