<svg width="40" height="40" viewBox="0 0 40 40" fill="none" xmlns="http://www.w3.org/2000/svg">
<g clip-path="url(#clip0_1110_235)">
<path d="M-0.00129122 38.0518C0.916331 35.7491 1.84438 33.4464 2.762 31.1437C2.88713 30.8312 3.01226 30.5082 3.15825 30.2164C3.49193 29.5392 4.05502 29.1745 4.8058 29.1536C5.55658 29.1328 6.31779 29.1432 7.06857 29.1536C7.47525 29.1536 7.72551 29.4037 7.73593 29.7684C7.73593 30.1331 7.48567 30.3935 7.079 30.404C6.38036 30.4144 5.67128 30.4144 4.97264 30.404C4.57639 30.3935 4.34699 30.5602 4.201 30.9249C3.28338 33.1859 2.3449 35.4469 1.41685 37.7079C1.12488 38.4165 1.37514 38.7707 2.14678 38.7811C7.99662 38.7811 13.8465 38.7811 19.7067 38.7811C25.6921 38.7811 31.6671 38.7811 37.6525 38.7811C37.7672 38.7811 37.8923 38.7811 38.007 38.7811C38.6223 38.7603 38.883 38.3852 38.6536 37.8226C38.2365 36.7806 37.8089 35.7491 37.3814 34.7176C36.8704 33.4673 36.3386 32.2169 35.8485 30.9666C35.6921 30.5707 35.4419 30.404 35.0143 30.4144C34.347 30.4352 33.6901 30.4248 33.0227 30.4144C32.543 30.4144 32.2928 30.1852 32.2823 29.7892C32.2823 29.3933 32.5326 29.1641 33.0123 29.1641C33.7318 29.1641 34.4513 29.1536 35.1603 29.1641C35.9841 29.1745 36.5993 29.56 36.9122 30.3102C37.9132 32.6962 38.9038 35.0927 39.8631 37.4891C40.2594 38.4894 39.738 39.5522 38.7161 39.9273C38.6327 39.9585 38.5493 39.9898 38.4659 40.0315C26.1614 40.0315 13.8569 40.0315 1.55241 40.0315C0.666071 39.7501 0.134267 39.1562 -0.0117188 38.2289C-0.00129122 38.156 -0.00129122 38.1039 -0.00129122 38.0518Z" fill="#1B1B1B"/>
<path d="M10.6589 36.1556C11.9206 36.1556 13.1198 36.1556 14.3711 36.1556C14.3711 35.9889 14.3711 35.843 14.3711 35.6867C14.3711 33.4986 14.4024 31.3106 14.3606 29.1225C14.3294 27.7471 15.4451 27.0073 16.467 27.0178C18.8341 27.049 21.2115 27.0282 23.5786 27.0282C24.8507 27.0282 25.6537 27.8305 25.6537 29.1016C25.6537 31.3001 25.6537 33.4986 25.6537 35.7075C25.6537 35.843 25.6537 35.9889 25.6537 36.1451C26.8945 36.1451 28.1041 36.1451 29.3763 36.1451C29.3763 35.9889 29.3763 35.8221 29.3763 35.6554C29.3763 31.1543 29.3763 26.6427 29.3763 22.1415C29.3763 21.4955 29.5744 21.2038 29.9915 21.2038C30.419 21.2038 30.6172 21.5059 30.6172 22.1415C30.6172 26.924 30.6172 31.6961 30.6172 36.4786C30.6172 37.2288 30.4399 37.4163 29.6995 37.4163C23.2345 37.4163 16.7694 37.4163 10.3043 37.4163C9.56399 37.4163 9.38672 37.2392 9.38672 36.489C9.38672 27.57 9.38672 18.651 9.38672 9.7216C9.38672 8.3254 10.1688 7.54395 11.5661 7.54395C14.7048 7.54395 17.8434 7.54395 20.9926 7.54395C21.0968 7.54395 21.2011 7.54395 21.3054 7.55436C21.6391 7.59604 21.8268 7.80443 21.8476 8.11701C21.8685 8.41917 21.7225 8.6484 21.4305 8.74217C21.2741 8.79427 21.0968 8.79427 20.93 8.79427C17.8434 8.79427 14.7569 8.79427 11.6599 8.79427C10.8153 8.79427 10.638 8.9714 10.638 9.82579C10.638 18.4322 10.638 27.0386 10.638 35.6554C10.6589 35.8221 10.6589 35.9784 10.6589 36.1556ZM15.6432 36.1451C16.9154 36.1451 18.1458 36.1451 19.3763 36.1451C19.3763 33.509 19.3763 30.9042 19.3763 28.2785C18.3961 28.2785 17.4576 28.2785 16.5087 28.2785C15.8726 28.2785 15.6328 28.5182 15.6328 29.1433C15.6328 31.3522 15.6328 33.5611 15.6328 35.7805C15.6224 35.8951 15.6328 36.0097 15.6432 36.1451ZM20.6693 28.2785C20.6693 30.9355 20.6693 33.5403 20.6693 36.1451C21.9206 36.1451 23.1511 36.1451 24.3815 36.1451C24.4024 36.1035 24.4128 36.0722 24.4128 36.0514C24.4128 33.6862 24.4232 31.321 24.4128 28.9558C24.4128 28.5494 24.1417 28.2994 23.7037 28.2889C22.7027 28.2681 21.7016 28.2785 20.6693 28.2785Z" fill="#1B1B1B"/>
<path d="M36.776 6.75175C36.776 7.99165 36.4632 9.13779 35.8271 10.211C34.1066 13.118 32.3861 16.0354 30.6655 18.9424C30.238 19.6614 29.7583 19.6509 29.3308 18.932C27.6102 16.025 25.8584 13.1284 24.1796 10.1901C22.8553 7.87704 22.8553 5.50142 24.2526 3.23C25.6499 0.948153 27.7771 -0.125044 30.4465 0.0104084C33.9919 0.187538 36.776 3.19874 36.776 6.75175ZM29.9877 17.5775C30.0399 17.515 30.0816 17.4837 30.1024 17.442C31.6874 14.7538 33.335 12.0969 34.847 9.36701C35.9627 7.33523 35.7854 5.2722 34.3777 3.42797C32.97 1.59415 31.0409 0.896056 28.7677 1.39619C25.1389 2.18806 23.3558 6.32455 25.2328 9.54414C26.6196 11.9302 28.0378 14.2954 29.4455 16.671C29.6228 16.9627 29.8 17.2545 29.9877 17.5775Z" fill="#1B1B1B"/>
<path d="M24.1624 18.6504C24.7984 18.6504 25.4345 18.6504 26.081 18.6504C26.592 18.6504 26.8214 18.8692 26.8214 19.3902C26.8318 20.578 26.8318 21.7554 26.8214 22.9432C26.8214 23.4537 26.592 23.6725 26.0706 23.6725C24.7984 23.6725 23.5159 23.6725 22.2437 23.6725C21.7015 23.6725 21.4929 23.4641 21.4929 22.9119C21.4929 21.7449 21.4825 20.5676 21.4929 19.4006C21.4929 18.8588 21.7015 18.6504 22.2541 18.6504C22.8902 18.6504 23.5263 18.6504 24.1624 18.6504ZM22.7546 19.9216C22.7546 20.7759 22.7546 21.5887 22.7546 22.4222C23.7036 22.4222 24.6107 22.4222 25.5388 22.4222C25.5388 21.5782 25.5388 20.7551 25.5388 19.9216C24.6003 19.9216 23.6931 19.9216 22.7546 19.9216Z" fill="#1B1B1B"/>
<path d="M15.9038 18.6511C16.5503 18.6511 17.2073 18.6407 17.8538 18.6511C18.3334 18.6615 18.542 18.8699 18.5524 19.3492C18.5628 20.5579 18.5628 21.7665 18.5524 22.9856C18.5524 23.4649 18.3334 23.6837 17.8642 23.6837C16.5503 23.6941 15.2365 23.6941 13.9122 23.6837C13.4638 23.6837 13.2344 23.4544 13.2344 23.0064C13.224 21.7873 13.224 20.5579 13.2344 19.3388C13.2344 18.8908 13.4638 18.672 13.9122 18.6615C14.5795 18.6511 15.2469 18.6511 15.9038 18.6511ZM17.2803 22.4229C17.2803 21.5685 17.2803 20.7558 17.2803 19.9327C16.3418 19.9327 15.4242 19.9327 14.5065 19.9327C14.5065 20.7767 14.5065 21.5998 14.5065 22.4229C15.445 22.4229 16.3522 22.4229 17.2803 22.4229Z" fill="#1B1B1B"/>
<path d="M15.9025 16.1188C15.2665 16.1188 14.6304 16.1292 13.9839 16.1188C13.4416 16.1084 13.2331 15.9 13.2227 15.3582C13.2227 14.1912 13.2227 13.0138 13.2227 11.8469C13.2227 11.3155 13.4521 11.0967 13.9943 11.0967C15.256 11.0967 16.5178 11.0967 17.7899 11.0967C18.3426 11.0967 18.5511 11.3051 18.5616 11.8469C18.572 13.0347 18.572 14.2121 18.5616 15.3999C18.5616 15.9209 18.353 16.1292 17.8212 16.1397C17.1747 16.1292 16.5386 16.1188 15.9025 16.1188ZM14.4948 12.347C14.4948 13.2014 14.4948 14.0141 14.4948 14.8581C15.4333 14.8581 16.3509 14.8581 17.279 14.8581C17.279 14.0141 17.279 13.191 17.279 12.347C16.3405 12.347 15.4333 12.347 14.4948 12.347Z" fill="#1B1B1B"/>
<path d="M22.7226 14.8786C23.1815 14.8786 23.5881 14.8786 24.0052 14.8786C24.4745 14.889 24.756 15.1078 24.7664 15.4829C24.7769 15.8684 24.4953 16.1081 24.0052 16.1185C23.4109 16.1289 22.8061 16.1289 22.2117 16.1185C21.7112 16.1081 21.4922 15.8997 21.4922 15.41C21.4818 14.2118 21.4818 13.0135 21.4922 11.8153C21.4922 11.3464 21.732 11.0859 22.1178 11.0859C22.4932 11.0859 22.7331 11.3568 22.7331 11.8361C22.7435 12.6905 22.7331 13.5553 22.7331 14.4097C22.7226 14.5556 22.7226 14.691 22.7226 14.8786Z" fill="#1B1B1B"/>
<path d="M26.4025 6.72078C26.4338 4.73068 28.071 3.11567 30.0418 3.14693C32.0543 3.17819 33.6601 4.82445 33.6288 6.81455C33.5975 8.79423 31.9291 10.3988 29.9583 10.3676C27.9562 10.3363 26.3817 8.71088 26.4025 6.72078ZM27.6539 6.75204C27.6539 8.05446 28.707 9.11724 30.0105 9.11724C31.3035 9.11724 32.3775 8.04404 32.3775 6.76246C32.3775 5.47045 31.3139 4.39726 30.0209 4.39726C28.707 4.39726 27.6539 5.44961 27.6539 6.75204Z" fill="#1B1B1B"/>
</g>
<defs>
<clipPath id="clip0_1110_235">
<rect width="40" height="40" fill="white"/>
</clipPath>
</defs>
</svg>
