<svg width="248" height="107" viewBox="0 0 248 107" fill="none" xmlns="http://www.w3.org/2000/svg">
<g clip-path="url(#clip0_249_485)">
<path d="M120.1 43.8C120.1 43.8 119.8 33.9 118.3 27.2C116.7 20.5 121.1 18.9 123.8 24.8C126.5 18.9 130.9 20.5 129.3 27.2C127.7 33.9 127.5 43.8 127.5 43.8C132.1 24.3 143.6 14.6 143.6 14.6C138.7 12.8 131.5 11.9 129.5 14.6C130.4 11.5 125.7 0.6 123.8 0C121.9 0.7 117.3 11.5 118.1 14.6C116.1 11.9 108.9 12.8 104 14.6C104 14.6 115.5 24.4 120.1 43.8Z" fill="#1B1B1B"/>
<path d="M123.8 47.1001C122.2 47.1001 121 48.0001 121 49.0001C121 50.1001 122.3 50.9001 123.8 50.9001C125.4 50.9001 126.6 50.0001 126.6 49.0001C126.6 47.9001 125.4 47.1001 123.8 47.1001Z" fill="#1B1B1B"/>
<path d="M120.3 87.6C119.9 87 112.8 77 99.0004 69C81.3004 56.9 63.7004 58.8 56.6004 49C55.0004 53 56.5004 59.9 61.9004 61.4C58.8004 62.1 55.9004 63.2 53.2004 64.7C46.6004 68.3 42.2004 73.6 40.3004 80.1C38.8004 85.4 39.6004 91 42.5004 95.9C45.6004 101.2 50.9004 105 56.9004 106.3C58.2004 106.6 59.5004 106.7 60.7004 106.7C68.8004 106.7 76.2004 101.1 78.0004 92.8C78.2004 91.7 78.3004 90.7 78.3004 89.6C78.3004 82.1 74.9004 74.9 65.5004 74.3C56.1004 73.7 50.5004 81.3 53.5004 88.5C55.5004 86 56.5004 82 57.1004 81.1C58.9004 88.8 61.0004 74.3 70.7003 79.7C72.0004 80.6 73.1004 81.7 73.9004 83.1C75.6004 85.8 76.2004 89.1 75.5004 92.2C73.7004 100.5 65.4004 105.8 57.1004 103.9C51.7004 102.7 47.0004 99.3 44.2004 94.6C41.6004 90.3 40.9004 85.3 42.2004 80.6C43.9004 74.7 47.9004 69.8 54.0004 66.5C62.0004 62.1 72.5004 61.2 81.9004 64C82.2004 64.1 82.6004 64.2 82.9004 64.3C75.9004 64.6 73.1003 74.3 81.2004 79.2C80.3004 76.9 79.6004 63.7 91.3004 67.6C109.2 76 120.3 87.6 120.3 87.6Z" fill="#1B1B1B"/>
<path d="M49.4002 61.4001C49.7002 61.6001 50.0002 61.7001 50.4002 61.7001C51.4002 61.7001 52.2002 60.9001 52.2002 59.9001C52.2002 58.9001 51.4002 58.1001 50.4002 58.1001C49.7002 58.1001 49.1002 58.5001 48.8002 59.1001C41.7002 60.7001 35.6002 64.9001 31.2002 70.5001C27.6002 75.2001 21.7002 80.2001 15.9002 80.9001C8.60018 82.3001 1.70018 76.3001 2.40018 69.5001C4.80018 65.0001 13.5002 69.8001 13.0002 64.0001C15.5002 64.6001 19.2002 68.8001 17.6002 72.6001C18.8002 71.6001 19.5002 70.1001 19.8002 68.4001C20.8002 58.2001 6.40018 55.7001 1.90018 64.1001C-1.99982 69.9001 0.300183 78.6001 6.60018 81.8001C13.2002 85.4001 20.7002 83.4001 26.4002 79.1001C23.7002 86.0001 23.3002 93.6001 25.9002 100.7C26.1002 101.2 26.2002 101.7 26.4002 102.2C27.9002 98.1001 30.5002 95.8001 29.0002 91.6001C27.6002 87.7001 26.5002 84.9001 28.0002 80.9001C31.7002 71.6001 39.4002 64.0001 49.4002 61.4001Z" fill="#1B1B1B"/>
<path d="M88.3003 83.5C91.0003 89 97.4003 88.8 97.4003 88.8C90.0003 95.1 112 90.7 119.7 101.2C108.9 86.1 102.4 83.8 88.3003 83.5Z" fill="#1B1B1B"/>
<path d="M194.4 64.7C191.7 63.2 188.8 62.2 185.7 61.4C191.1 59.9 192.6 53 191 49C183.9 58.9 166.3 56.9 148.6 69C134.7 77.1 127.7 87 127.3 87.6C127.3 87.6 138.4 76 155.9 67.8C167.6 63.9 166.8 77.1 166 79.4C174.1 74.5 171.3 64.8 164.3 64.5C164.6 64.4 165 64.3 165.3 64.2C174.8 61.4 185.2 62.3 193.2 66.7C199.2 70 203.3 74.9 205 80.8C206.3 85.5 205.6 90.4 203 94.8C200.2 99.5 195.5 102.9 190.1 104.1C181.8 106 173.5 100.7 171.7 92.4C171 89.2 171.6 86 173.3 83.3C174.2 81.9 175.3 80.8 176.5 79.9C186.2 74.5 188.3 89 190.1 81.3C190.8 82.2 191.7 86.2 193.7 88.7C196.8 81.5 191.1 74 181.7 74.5C172.3 75.1 168.9 82.3 168.9 89.8C168.9 90.9 169 91.9 169.2 93C171 101.3 178.4 106.9 186.5 106.9C187.8 106.9 189.1 106.8 190.3 106.5C196.3 105.2 201.6 101.4 204.7 96.1C207.6 91.2 208.4 85.6 206.9 80.3C205.4 73.6 201 68.3 194.4 64.7Z" fill="#1B1B1B"/>
<path d="M245.7 64.1001C241.2 55.7001 226.8 58.2001 227.8 68.4001C228.1 70.0001 228.9 71.5001 230 72.6001C228.4 68.8001 232.1 64.6001 234.6 64.0001C234.1 69.9001 242.7 65.0001 245.1 69.5001C245.8 76.3001 238.9 82.3001 231.5 80.9001C225.8 80.2001 219.8 75.2001 216.2 70.5001C211.8 64.9001 205.7 60.7001 198.6 59.1001C198.3 58.5001 197.7 58.1001 197 58.1001C196 58.1001 195.2 58.9001 195.2 59.9001C195.2 60.9001 196 61.7001 197 61.7001C197.4 61.7001 197.7 61.6001 198 61.4001C208 64.1001 215.8 71.7001 219.5 81.0001C221 85.0001 219.9 87.8001 218.5 91.7001C217 95.9001 219.6 98.1001 221.1 102.3C221.3 101.9 221.5 101.4 221.6 100.8C224.2 93.7001 223.8 86.0001 221.1 79.2001C226.8 83.5001 234.3 85.5001 240.9 81.9001C247.3 78.6001 249.6 69.9001 245.7 64.1001Z" fill="#1B1B1B"/>
<path d="M127.9 101.3C135.7 90.8001 157.6 95.2001 150.2 88.9001C150.2 88.9001 156.6 89.1001 159.3 83.6001C145.2 83.8001 138.7 86.1001 127.9 101.3Z" fill="#1B1B1B"/>
<path d="M123.8 104.5C126.341 104.5 128.4 101.232 128.4 97.1999C128.4 93.1682 126.341 89.8999 123.8 89.8999C121.26 89.8999 119.2 93.1682 119.2 97.1999C119.2 101.232 121.26 104.5 123.8 104.5Z" fill="#1B1B1B"/>
<path d="M141.6 62.7C146.8 61.8 151.6 61.2 156.1 60.9C163 56.1 171 49.4 183.1 41.8C192.3 36.2 201.3 33.7 208.8 32.9C206.8 31.5 204.5 30.2 202.1 29C205.6 30 208.8 31.2 211.7 32.7C213.8 32.6 215.8 32.6 217.7 32.6C214.9 30.8 211.8 29.1 208.4 27.5C212.6 29 216.3 30.8 219.7 32.7C233.1 34.1 237.6 38.2 237.5 38C237.1 38 236.6 32 228.5 24.3C220.7 17.1 205.3 8.19997 180.8 12C175.2 16.5 169.1 21.6 163.2 27.3C166.8 22.3 170.6 17.7 174.4 13.4C168.5 15 162.3 17.5 156.2 21.1C150 24.7 144.8 29.1 140.5 33.8C139 39.6 137.4 46.1 136 52.9C135.9 48.1 136.1 43.4 136.3 39C136.3 39.1 136.2 39.1 136.2 39.2C135.1 44.3 134 49.7 133 55.5C132.8 51.8 132.8 48.1 132.8 44.6C126 57 126.7 67.1 131.7 69.6C136.3 72.1 143.6 69.4 152.4 63.4C149.1 63.2 145.5 62.9 141.6 62.7Z" fill="#AA8453"/>
<path d="M127.7 75.7999C131.9 64.8999 142.6 49.9999 156.8 40.1999C170.7 30.0999 188.1 24.9999 199.6 23.9999C203.9 23.1999 217.2 23.9999 217.2 24.2999C176 22.0999 137.9 47.6999 125.1 86.9999C124.9 87.6999 124.1 87.5999 124.3 86.8999C125.2 82.6999 126.7 78.0999 127.7 75.7999Z" fill="white"/>
<path d="M106 62.7C100.8 61.8 95.9999 61.2 91.4999 60.9C84.5999 56.1 76.5999 49.4 64.4999 41.8C55.2999 36.2 46.2999 33.7 38.7999 32.9C40.7999 31.5 43.0999 30.2 45.4999 29C41.9999 30 38.7999 31.2 35.8999 32.7C33.7999 32.6 31.7999 32.6 29.8999 32.6C32.6999 30.8 35.7999 29.1 39.1999 27.5C34.9999 29 31.2999 30.8 27.8999 32.7C14.2999 34.1 9.8999 38.2 9.8999 38C10.2999 38 10.7999 32 18.8999 24.3C26.6999 17.1 42.0999 8.19997 66.5999 12C72.1999 16.5 78.2999 21.6 84.1999 27.3C80.5999 22.3 76.7999 17.7 72.9999 13.4C78.8999 15 85.0999 17.5 91.1999 21.1C97.3999 24.7 102.6 29.1 106.9 33.8C108.4 39.6 110 46.1 111.4 52.9C111.5 48.1 111.3 43.4 111.1 39C111.1 39.1 111.2 39.1 111.2 39.2C112.3 44.3 113.4 49.7 114.4 55.5C114.6 51.8 114.6 48.1 114.6 44.6C121.4 57 120.7 67.1 115.7 69.6C111.1 72.1 103.8 69.4 94.9999 63.4C98.4999 63.2 102.2 62.9 106 62.7Z" fill="#AA8453"/>
<path d="M119.9 75.7999C115.7 64.8999 105 49.9999 90.7999 40.1999C76.9999 30.0999 59.4999 24.9999 47.9999 23.9999C43.6999 23.1999 30.3999 23.9999 30.3999 24.2999C71.6999 22.1999 109.7 47.6999 122.5 87.0999C122.7 87.7999 123.5 87.6999 123.3 86.9999C122.4 82.6999 120.9 78.0999 119.9 75.7999Z" fill="white"/>
</g>
<defs>
<clipPath id="clip0_249_485">
<rect width="247.6" height="106.7" fill="white"/>
</clipPath>
</defs>
</svg>
