<svg width="60" height="60" viewBox="0 0 60 60" fill="none" xmlns="http://www.w3.org/2000/svg">
<path d="M40 37.5C40 43.015 35.515 47.5 30 47.5C25.3525 47.5 21.4725 44.3 20.355 40H25C26.3825 40 27.5 38.88 27.5 37.5C27.5 36.12 26.3825 35 25 35H20.355C21.4725 30.7 25.3525 27.5 30 27.5C35.515 27.5 40 31.985 40 37.5ZM55 12.5V47.5C55 54.3925 49.3925 60 42.5 60H17.5C10.6075 60 5 54.3925 5 47.5V12.5C5 5.6075 10.6075 0 17.5 0H42.5C49.3925 0 55 5.6075 55 12.5ZM25 11.25C25 13.32 26.68 15 28.75 15C30.82 15 32.5 13.32 32.5 11.25C32.5 9.18 30.82 7.5 28.75 7.5C26.68 7.5 25 9.18 25 11.25ZM16.25 15C18.32 15 20 13.32 20 11.25C20 9.18 18.32 7.5 16.25 7.5C14.18 7.5 12.5 9.18 12.5 11.25C12.5 13.32 14.18 15 16.25 15ZM45 37.5C45 29.2275 38.2725 22.5 30 22.5C21.7275 22.5 15 29.2275 15 37.5C15 45.7725 21.7275 52.5 30 52.5C38.2725 52.5 45 45.7725 45 37.5Z" fill="#AA8453"/>
</svg>
