<svg width="20" height="20" viewBox="0 0 20 20" fill="none" xmlns="http://www.w3.org/2000/svg">
<g clip-path="url(#clip0_587_583)">
<path d="M17.5 4.99999H11.785L15.5975 1.18749L14.4192 0.00915527L10 4.42915L5.58083 0.00915527L4.4025 1.18749L8.215 4.99999H2.5C1.12167 4.99999 0 6.12166 0 7.49999V20H20V7.49999C20 6.12166 18.8783 4.99999 17.5 4.99999ZM18.3333 18.3333H1.66667V7.49999C1.66667 7.04082 2.04083 6.66666 2.5 6.66666H17.5C17.9592 6.66666 18.3333 7.04082 18.3333 7.49999V18.3333ZM3.33333 16.6667H13.3333V8.33332H3.33333V16.6667ZM5 9.99999H11.6667V15H5V9.99999ZM15 8.33332H16.6667V9.99999H15V8.33332ZM15 11.6667H16.6667V13.3333H15V11.6667ZM15 15H16.6667V16.6667H15V15Z" fill="#1B1B1B"/>
</g>
<defs>
<clipPath id="clip0_587_583">
<rect width="20" height="20" fill="white"/>
</clipPath>
</defs>
</svg>
