<svg width="20" height="20" viewBox="0 0 20 20" fill="none" xmlns="http://www.w3.org/2000/svg">
<g clip-path="url(#clip0_587_589)">
<path d="M19.3742 10.846C18.9 10.3085 18.2167 10.0002 17.5 10.0002H1.66667V3.73517C1.66667 3.03434 1.98333 2.34101 2.5775 1.96851C3.485 1.39934 4.59333 1.67934 5.16667 2.44434L5.3825 2.73184L4.98 5.04101C4.93167 5.31934 4.98917 5.60601 5.14167 5.84351C5.49583 6.39517 6.24417 6.53018 6.76833 6.13684L9.77333 3.88351C10.2458 3.52934 10.365 2.86934 10.0458 2.37184L10.035 2.35434C9.8375 2.04601 9.50167 1.85267 9.13583 1.83601L6.71417 1.72851L6.56917 1.53517C6.02083 0.804341 5.24167 0.250175 4.345 0.0726748C2.03333 -0.384825 0 1.38017 0 3.61101C0 3.61101 0.00333333 8.36934 0.005 10.2135C0.005 10.6935 0.0358333 11.1677 0.095 11.6443C0.179167 12.3185 0.2925 13.2277 0.2925 13.2277C0.501667 14.8985 1.31167 16.3668 2.48833 17.4252L2.1075 18.9668C1.99667 19.4135 2.26917 19.8652 2.71583 19.976C2.78333 19.9927 2.85 20.0002 2.91667 20.0002C3.29083 20.0002 3.63083 19.746 3.725 19.3668L3.95583 18.4327C4.88 18.9027 5.9225 19.1668 7.01917 19.1668H13.2C14.2192 19.1668 15.1917 18.9393 16.0667 18.5293L16.2742 19.3668C16.3675 19.746 16.7083 20.0002 17.0825 20.0002C17.1492 20.0002 17.2158 19.9918 17.2833 19.976C17.73 19.8652 18.0025 19.4135 17.8917 18.9668L17.55 17.5835C18.825 16.5152 19.7092 14.9835 19.9283 13.2285L19.98 12.811C20.0683 12.0993 19.8483 11.3843 19.3733 10.8468L19.3742 10.846ZM18.3267 12.6035L18.275 13.021C17.9558 15.5743 15.7742 17.5002 13.2008 17.5002H7.02C4.44667 17.5002 2.26583 15.5743 1.94667 13.021L1.7775 11.6668H17.5C17.7425 11.6668 17.965 11.7668 18.125 11.9485C18.285 12.131 18.3567 12.3627 18.3267 12.6035Z" fill="#1B1B1B"/>
</g>
<defs>
<clipPath id="clip0_587_589">
<rect width="20" height="20" fill="white"/>
</clipPath>
</defs>
</svg>
