<svg width="20" height="20" viewBox="0 0 20 20" fill="none" xmlns="http://www.w3.org/2000/svg">
<g clip-path="url(#clip0_585_517)">
<path d="M17.5 1.66669H2.5C1.12167 1.66669 0 2.78835 0 4.16669V18.3334H1.66667V15.8334H18.3333V18.3334H20V4.16669C20 2.78835 18.8783 1.66669 17.5 1.66669ZM2.5 3.33335H17.5C17.96 3.33335 18.3333 3.70752 18.3333 4.16669V10.8334H16.6667V10C16.6667 8.62169 15.545 7.50002 14.1667 7.50002H11.6667C11.0267 7.50002 10.4425 7.74169 10 8.13835C9.5575 7.74169 8.97333 7.50002 8.33333 7.50002H5.83333C4.455 7.50002 3.33333 8.62169 3.33333 10V10.8334H1.66667V4.16669C1.66667 3.70752 2.04083 3.33335 2.5 3.33335ZM9.16667 10.8334H5V10C5 9.54085 5.37417 9.16669 5.83333 9.16669H8.33333C8.7925 9.16669 9.16667 9.54085 9.16667 10V10.8334ZM10.8333 10C10.8333 9.54085 11.2067 9.16669 11.6667 9.16669H14.1667C14.6267 9.16669 15 9.54085 15 10V10.8334H10.8333V10ZM1.66667 14.1667V12.5H18.3333V14.1667H1.66667Z" fill="#1B1B1B"/>
</g>
<defs>
<clipPath id="clip0_585_517">
<rect width="20" height="20" fill="white"/>
</clipPath>
</defs>
</svg>
