<svg width="20" height="20" viewBox="0 0 20 20" fill="none" xmlns="http://www.w3.org/2000/svg">
<g clip-path="url(#clip0_585_546)">
<path d="M8.33189 15.8334C8.33189 14.9167 9.08189 14.1667 9.99856 14.1667C10.9152 14.1667 11.6652 14.9167 11.6652 15.8334C11.6652 16.75 10.9152 17.5 9.99856 17.5C9.08189 17.5 8.33189 16.75 8.33189 15.8334ZM19.7319 7.95003C20.0736 7.63336 20.0902 7.10836 19.7736 6.77503C17.2569 4.0667 13.6902 2.50836 9.99856 2.50836C6.30689 2.50836 2.74022 4.05836 0.223557 6.7667C-0.0931095 7.10836 -0.0681096 7.63336 0.265224 7.9417C0.598557 8.25836 1.13189 8.23336 1.44022 7.90003C3.64022 5.52503 6.75689 4.1667 9.99856 4.1667C13.2402 4.1667 16.3486 5.52503 18.5569 7.90003C18.7236 8.07503 18.9402 8.1667 19.1652 8.1667C19.3652 8.1667 19.5736 8.09169 19.7319 7.9417V7.95003ZM15.5569 11.9584C15.8986 11.6417 15.9152 11.1167 15.5986 10.7834C14.1569 9.22503 12.1152 8.33336 9.99856 8.33336C7.88189 8.33336 5.84022 9.22503 4.39856 10.7834C4.08189 11.1167 4.10689 11.65 4.44022 11.9584C4.77356 12.275 5.30689 12.25 5.61522 11.9167C6.74022 10.7 8.34022 10.0084 9.99856 10.0084C11.6569 10.0084 13.2486 10.7084 14.3819 11.9167C14.5486 12.0917 14.7652 12.1834 14.9902 12.1834C15.1902 12.1834 15.3986 12.1084 15.5569 11.9584Z" fill="#1B1B1B"/>
</g>
<defs>
<clipPath id="clip0_585_546">
<rect width="20" height="20" fill="white"/>
</clipPath>
</defs>
</svg>
