<svg width="20" height="20" viewBox="0 0 20 20" fill="none" xmlns="http://www.w3.org/2000/svg">
<g clip-path="url(#clip0_587_595)">
<path d="M19.1667 15.8333V14.1667C19.1636 11.8811 18.3077 9.67898 16.7663 7.99137C15.225 6.30375 13.1093 5.25218 10.8333 5.04251V3.93585C11.1511 3.7524 11.3994 3.46924 11.5398 3.13028C11.6802 2.79132 11.7048 2.4155 11.6099 2.06111C11.5149 1.70672 11.3057 1.39357 11.0146 1.17022C10.7235 0.946868 10.3669 0.825806 10 0.825806C9.63311 0.825806 9.27647 0.946868 8.9854 1.17022C8.69432 1.39357 8.48508 1.70672 8.39012 2.06111C8.29517 2.4155 8.3198 2.79132 8.4602 3.13028C8.6006 3.46924 8.84893 3.7524 9.16667 3.93585V5.04251C6.89074 5.25218 4.77501 6.30375 3.23367 7.99137C1.69233 9.67898 0.836359 11.8811 0.833333 14.1667V15.8333H0V17.5H20V15.8333H19.1667ZM2.5 14.1667C2.89417 4.22168 17.1092 4.22918 17.5 14.1667V15.8333H2.5V14.1667Z" fill="#1B1B1B"/>
</g>
<defs>
<clipPath id="clip0_587_595">
<rect width="20" height="20" fill="white"/>
</clipPath>
</defs>
</svg>
