<svg width="20" height="20" viewBox="0 0 20 20" fill="none" xmlns="http://www.w3.org/2000/svg">
<g clip-path="url(#clip0_585_528)">
<path d="M17.585 7.15165L19.9617 4.77498L13.8233 0.682482C12.2158 -0.389185 10.0567 -0.175018 8.69167 1.19082C7.60083 2.28165 7.245 3.87832 7.69167 5.29665L4.16667 8.82165V18.3333H0V20H10V18.3333H5.83333V9.51165L8.51833 6.82665L12.275 12.4616L14.6517 10.085C14.6892 10.1308 14.73 10.1766 14.7767 10.2225C15.59 11.0358 16.9092 11.0358 17.7233 10.2225C18.5375 9.40915 18.5367 8.08998 17.7233 7.27582C17.6767 7.22915 17.6308 7.18832 17.5858 7.15082L17.585 7.15165ZM9.56917 5.39832C8.93667 4.44915 9.06333 3.17582 9.86917 2.36915C10.3325 1.90665 10.9483 1.66748 11.5692 1.66748C12.0308 1.66748 12.4933 1.79915 12.8983 2.06832L17.3458 5.03332L12.5342 9.84498L9.56917 5.39832Z" fill="#1B1B1B"/>
</g>
<defs>
<clipPath id="clip0_585_528">
<rect width="20" height="20" fill="white"/>
</clipPath>
</defs>
</svg>
