<svg width="20" height="20" viewBox="0 0 20 20" fill="none" xmlns="http://www.w3.org/2000/svg">
<g clip-path="url(#clip0_585_561)">
<path d="M15.8346 6.66667V5.83333C15.8346 4.28624 15.2201 2.80251 14.1261 1.70854C13.0321 0.614582 11.5484 0 10.0013 0C8.4542 0 6.97047 0.614582 5.87651 1.70854C4.78255 2.80251 4.16797 4.28624 4.16797 5.83333V6.66667H1.66797V17.5C1.66797 18.163 1.93136 18.7989 2.4002 19.2678C2.86904 19.7366 3.50493 20 4.16797 20H15.8346C16.4977 20 17.1336 19.7366 17.6024 19.2678C18.0712 18.7989 18.3346 18.163 18.3346 17.5V6.66667H15.8346ZM5.83463 5.83333C5.83463 4.72826 6.27362 3.66846 7.05502 2.88706C7.83642 2.10565 8.89623 1.66667 10.0013 1.66667C11.1064 1.66667 12.1662 2.10565 12.9476 2.88706C13.729 3.66846 14.168 4.72826 14.168 5.83333V6.66667H5.83463V5.83333ZM16.668 17.5C16.668 17.721 16.5802 17.933 16.4239 18.0893C16.2676 18.2455 16.0556 18.3333 15.8346 18.3333H4.16797C3.94695 18.3333 3.73499 18.2455 3.57871 18.0893C3.42243 17.933 3.33464 17.721 3.33464 17.5V8.33333H16.668V17.5Z" fill="#1B1B1B"/>
<path d="M10.8346 11.6667H9.16797V15H10.8346V11.6667Z" fill="#1B1B1B"/>
</g>
<defs>
<clipPath id="clip0_585_561">
<rect width="20" height="20" fill="white"/>
</clipPath>
</defs>
</svg>
