<svg width="20" height="20" viewBox="0 0 20 20" fill="none" xmlns="http://www.w3.org/2000/svg">
<g clip-path="url(#clip0_585_540)">
<path d="M9.18922 3.33333H7.52256V0H9.18922V3.33333ZM12.5226 0H10.8559V3.33333H12.5226V0ZM0.000889386 20H16.6676V18.3333H0.000889386V20ZM19.9951 10.9525C19.9682 11.8161 19.6054 12.635 18.984 13.2353C18.3626 13.8355 17.5315 14.1697 16.6676 14.1667H14.0384C13.4374 15.0575 12.7595 15.8941 12.0126 16.6667H4.65922C2.32693 14.2082 0.723678 11.15 0.0283894 7.83333C-0.0284545 7.49253 -0.0100973 7.14343 0.0821749 6.81047C0.174447 6.47751 0.338403 6.16876 0.562556 5.90583C0.800899 5.62214 1.09844 5.39405 1.4343 5.23756C1.77016 5.08108 2.1362 4.99999 2.50672 5H14.1676C14.5375 5.00108 14.9028 5.08292 15.2379 5.23981C15.573 5.3967 15.8698 5.62485 16.1076 5.90833C16.3317 6.17078 16.4957 6.47908 16.5882 6.81161C16.6806 7.14414 16.6991 7.49287 16.6426 7.83333C16.6134 8 16.5751 8.16667 16.5401 8.33333H16.6676C18.7192 8.33333 19.9951 9.3375 19.9951 10.9525ZM14.8342 6.98333C14.7525 6.88564 14.6506 6.80677 14.5355 6.75211C14.4204 6.69746 14.2949 6.66831 14.1676 6.66667H2.50756C2.38048 6.66812 2.25519 6.69684 2.14018 6.7509C2.02516 6.80496 1.9231 6.88309 1.84089 6.98C1.77296 7.05711 1.72281 7.14822 1.69401 7.24686C1.66521 7.34551 1.65845 7.44928 1.67422 7.55083C2.22712 10.3161 3.50128 12.886 5.36756 15H11.3042C13.1717 12.8873 14.4471 10.3182 15.0009 7.55333C15.0165 7.45192 15.0097 7.3483 14.9809 7.24981C14.9521 7.15131 14.902 7.06035 14.8342 6.98333ZM18.3342 10.9525C18.3342 10.3208 17.7742 10 16.6676 10H16.0951C15.8079 10.8607 15.4514 11.6968 15.0292 12.5H16.6676C17.0899 12.5034 17.4974 12.3449 17.8065 12.0571C18.1155 11.7693 18.3026 11.374 18.3292 10.9525H18.3342ZM5.85589 0H4.18922V3.33333H5.85589V0Z" fill="#1B1B1B"/>
</g>
<defs>
<clipPath id="clip0_585_540">
<rect width="20" height="20" fill="white"/>
</clipPath>
</defs>
</svg>
