<svg width="20" height="20" viewBox="0 0 20 20" fill="none" xmlns="http://www.w3.org/2000/svg">
<g clip-path="url(#clip0_585_571)">
<path d="M17.5 1.66667H6.51333C6.16833 0.699167 5.25167 0 4.16667 0H2.5C1.12167 0 0 1.12167 0 2.5V20H20V4.16667C20 2.78833 18.8783 1.66667 17.5 1.66667ZM18.3333 4.16667V5H13.3333V3.33333H17.5C17.96 3.33333 18.3333 3.70667 18.3333 4.16667ZM1.66667 2.5C1.66667 2.04 2.04 1.66667 2.5 1.66667H4.16667C4.62667 1.66667 5 2.04 5 2.5V15H1.66667V2.5ZM1.66667 18.3333V16.6667H6.66667V3.33333H11.6667V6.66667H18.3333V18.3333H1.66667ZM13.3333 9.16667C13.3333 9.62667 12.96 10 12.5 10C12.04 10 11.6667 9.62667 11.6667 9.16667C11.6667 8.70667 12.04 8.33333 12.5 8.33333C12.96 8.33333 13.3333 8.70667 13.3333 9.16667ZM10 9.16667C10 9.62667 9.62667 10 9.16667 10C8.70667 10 8.33333 9.62667 8.33333 9.16667C8.33333 8.70667 8.70667 8.33333 9.16667 8.33333C9.62667 8.33333 10 8.70667 10 9.16667ZM16.6667 9.16667C16.6667 9.62667 16.2933 10 15.8333 10C15.3733 10 15 9.62667 15 9.16667C15 8.70667 15.3733 8.33333 15.8333 8.33333C16.2933 8.33333 16.6667 8.70667 16.6667 9.16667ZM13.3333 12.5C13.3333 12.96 12.96 13.3333 12.5 13.3333C12.04 13.3333 11.6667 12.96 11.6667 12.5C11.6667 12.04 12.04 11.6667 12.5 11.6667C12.96 11.6667 13.3333 12.04 13.3333 12.5ZM10 12.5C10 12.96 9.62667 13.3333 9.16667 13.3333C8.70667 13.3333 8.33333 12.96 8.33333 12.5C8.33333 12.04 8.70667 11.6667 9.16667 11.6667C9.62667 11.6667 10 12.04 10 12.5ZM16.6667 12.5C16.6667 12.96 16.2933 13.3333 15.8333 13.3333C15.3733 13.3333 15 12.96 15 12.5C15 12.04 15.3733 11.6667 15.8333 11.6667C16.2933 11.6667 16.6667 12.04 16.6667 12.5ZM13.3333 15.8333C13.3333 16.2933 12.96 16.6667 12.5 16.6667C12.04 16.6667 11.6667 16.2933 11.6667 15.8333C11.6667 15.3733 12.04 15 12.5 15C12.96 15 13.3333 15.3733 13.3333 15.8333ZM10 15.8333C10 16.2933 9.62667 16.6667 9.16667 16.6667C8.70667 16.6667 8.33333 16.2933 8.33333 15.8333C8.33333 15.3733 8.70667 15 9.16667 15C9.62667 15 10 15.3733 10 15.8333ZM16.6667 15.8333C16.6667 16.2933 16.2933 16.6667 15.8333 16.6667C15.3733 16.6667 15 16.2933 15 15.8333C15 15.3733 15.3733 15 15.8333 15C16.2933 15 16.6667 15.3733 16.6667 15.8333Z" fill="#1B1B1B"/>
</g>
<defs>
<clipPath id="clip0_585_571">
<rect width="20" height="20" fill="white"/>
</clipPath>
</defs>
</svg>
