<svg width="20" height="20" viewBox="0 0 20 20" fill="none" xmlns="http://www.w3.org/2000/svg">
<g clip-path="url(#clip0_585_554)">
<path d="M15.8316 9.99998H13.6533L14.1033 6.39082C14.1819 6.02574 14.1782 5.64773 14.0925 5.28426C14.0067 4.92079 13.8411 4.58099 13.6076 4.28955C13.3741 3.9981 13.0786 3.76234 12.7425 3.59939C12.4065 3.43643 12.0384 3.35038 11.665 3.34748H9.69081C9.78165 2.70498 9.72665 1.67498 10.6358 1.67082H13.3316C13.5527 1.67082 13.7646 1.58302 13.9209 1.42674C14.0772 1.27046 14.165 1.0585 14.165 0.837484C14.165 0.61647 14.0772 0.404508 13.9209 0.248228C13.7646 0.0919478 13.5527 0.00415039 13.3316 0.00415039H10.6358C10.0267 0.00452533 9.43873 0.227248 8.98224 0.630493C8.52575 1.03374 8.23217 1.58976 8.15665 2.19415L8.01248 3.34748H2.49831C2.13231 3.35141 1.77157 3.4351 1.44122 3.59271C1.11088 3.75033 0.818872 3.97809 0.585558 4.26011C0.352245 4.54213 0.183234 4.87164 0.0903045 5.22567C-0.00262553 5.57969 -0.0172397 5.94973 0.0474804 6.30998L1.30831 16.3583C1.43581 17.3648 1.92575 18.2902 2.68642 18.9615C3.44709 19.6327 4.42633 20.0037 5.44081 20.005L15.8316 19.995C16.3788 19.995 16.9206 19.8872 17.4262 19.6778C17.9317 19.4684 18.391 19.1615 18.7779 18.7746C19.1648 18.3877 19.4718 17.9284 19.6811 17.4228C19.8905 16.9173 19.9983 16.3755 19.9983 15.8283V14.1667C19.9983 13.6195 19.8905 13.0777 19.6811 12.5721C19.4718 12.0666 19.1648 11.6073 18.7779 11.2204C18.391 10.8335 17.9317 10.5265 17.4262 10.3172C16.9206 10.1078 16.3788 9.99998 15.8316 9.99998ZM18.3316 14.1667H8.33165C8.33165 13.5036 8.59504 12.8677 9.06388 12.3989C9.53272 11.93 10.1686 11.6667 10.8316 11.6667H15.8316C16.4947 11.6667 17.1306 11.93 17.5994 12.3989C18.0683 12.8677 18.3316 13.5036 18.3316 14.1667ZM11.665 5.01332C11.7966 5.01403 11.9263 5.04558 12.0435 5.10545C12.1608 5.16532 12.2624 5.25183 12.3402 5.35805C12.418 5.46427 12.4698 5.58725 12.4914 5.7171C12.5131 5.84696 12.504 5.98009 12.465 6.10582L12.3925 6.66665H9.27581L9.48248 5.01165L11.665 5.01332ZM1.85165 5.32498C1.9294 5.22813 2.02781 5.14987 2.1397 5.09595C2.25159 5.04203 2.37411 5.01379 2.49831 5.01332H7.80415L7.59665 6.66665H1.76831L1.68498 6.02498C1.65827 5.90329 1.65939 5.77713 1.68824 5.65592C1.7171 5.53471 1.77296 5.42159 1.85165 5.32498ZM2.96165 16.1517L1.97831 8.33332H12.1841L11.975 9.99998H10.8316C9.72658 9.99998 8.66677 10.439 7.88537 11.2204C7.10397 12.0018 6.66498 13.0616 6.66498 14.1667C6.62998 15.5283 6.58165 17.2833 7.52831 18.3417H5.44081C4.83173 18.3413 4.24373 18.1186 3.78724 17.7153C3.33075 17.3121 3.03717 16.756 2.96165 16.1517ZM15.8316 18.3333H10.8316C10.1686 18.3333 9.53272 18.0699 9.06388 17.6011C8.59504 17.1322 8.33165 16.4964 8.33165 15.8333H11.415C11.7375 15.9883 13.8108 17.5925 14.165 17.5C14.5116 17.5983 16.6066 15.9808 16.915 15.8333H18.3316C18.3316 16.4964 18.0683 17.1322 17.5994 17.6011C17.1306 18.0699 16.4947 18.3333 15.8316 18.3333Z" fill="#1B1B1B"/>
</g>
<defs>
<clipPath id="clip0_585_554">
<rect width="20" height="20" fill="white"/>
</clipPath>
</defs>
</svg>
