<svg width="20" height="20" viewBox="0 0 20 20" fill="none" xmlns="http://www.w3.org/2000/svg">
<g clip-path="url(#clip0_585_534)">
<path d="M17.5 0H2.5C1.12167 0 0 1.12167 0 2.5V9.16667H20V2.5C20 1.12167 18.8783 0 17.5 0ZM18.3333 7.5H1.66667V2.5C1.66667 2.04083 2.04 1.66667 2.5 1.66667H17.5C17.96 1.66667 18.3333 2.04083 18.3333 2.5V7.5ZM3.33333 4.16667H16.6667V5.83333H3.33333V4.16667ZM5.83333 10.8333H7.5V16.6667C7.5 18.505 6.005 20 4.16667 20C2.32833 20 0.833333 18.505 0.833333 16.6667C0.833333 14.8283 2.32833 13.3333 4.16667 13.3333V15C3.2475 15 2.5 15.7475 2.5 16.6667C2.5 17.5858 3.2475 18.3333 4.16667 18.3333C5.08583 18.3333 5.83333 17.5858 5.83333 16.6667V10.8333ZM19.1667 16.6667C19.1667 18.505 17.6717 20 15.8333 20C13.995 20 12.5 18.505 12.5 16.6667V10.8333H14.1667V16.6667C14.1667 17.5858 14.9142 18.3333 15.8333 18.3333C16.7525 18.3333 17.5 17.5858 17.5 16.6667C17.5 15.7475 16.7525 15 15.8333 15V13.3333C17.6717 13.3333 19.1667 14.8283 19.1667 16.6667ZM9.16667 10.8333H10.8333V20H9.16667V10.8333Z" fill="#1B1B1B"/>
</g>
<defs>
<clipPath id="clip0_585_534">
<rect width="20" height="20" fill="white"/>
</clipPath>
</defs>
</svg>
