<svg width="20" height="20" viewBox="0 0 20 20" fill="none" xmlns="http://www.w3.org/2000/svg">
<g clip-path="url(#clip0_249_579)">
<path d="M15.345 18.3333L10.8333 13.8217V5.345L12.1592 4.01917C12.3942 4.11167 12.6492 4.16667 12.9167 4.16667C14.0675 4.16667 15 3.23417 15 2.08333C15 0.9325 14.0675 0 12.9167 0C11.7658 0 10.8333 0.9325 10.8333 2.08333C10.8333 2.35167 10.8883 2.60583 10.9808 2.84083L6.91083 6.91083L8.08917 8.08917L9.16667 7.01167V13.8217L4.655 18.3333H0V20H20V18.3333H15.345ZM10 15.345L12.9883 18.3333H7.01167L10 15.345Z" fill="white"/>
</g>
<defs>
<clipPath id="clip0_249_579">
<rect width="20" height="20" fill="white"/>
</clipPath>
</defs>
</svg>
