<svg width="20" height="20" viewBox="0 0 20 20" fill="none" xmlns="http://www.w3.org/2000/svg">
<g clip-path="url(#clip0_249_574)">
<path d="M15.2815 7.65689L12.5082 5.80773V0.837728C12.5082 0.377728 12.1348 0.00439453 11.6748 0.00439453H8.34149C7.88066 0.00439453 7.50816 0.377728 7.50816 0.837728V5.80773L4.73482 7.65689C3.33982 8.58606 2.50732 10.1411 2.50732 11.8169V15.8369C2.50732 18.1344 4.37649 20.0036 6.67399 20.0036H13.3415C15.639 20.0036 17.5082 18.1344 17.5082 15.8369V11.8169C17.5082 10.1411 16.6757 8.58606 15.2815 7.65689ZM15.8415 15.8369C15.8415 17.2152 14.7198 18.3369 13.3415 18.3369H6.67399C5.29566 18.3369 4.17399 17.2152 4.17399 15.8369V12.5044H13.3415C13.8023 12.5044 14.1748 12.1302 14.1748 11.6702C14.1748 11.2102 13.8015 10.8369 13.3415 10.8369H4.32066C4.54316 10.1127 5.00899 9.47606 5.65899 9.04356L8.80316 6.94689C9.03483 6.79189 9.17399 6.53189 9.17399 6.25356V3.33689H10.8407V6.25356C10.8407 6.53189 10.9798 6.79189 11.2115 6.94689L14.3557 9.04356C15.2848 9.66273 15.8398 10.6994 15.8398 11.8169V15.8369H15.8415Z" fill="white"/>
</g>
<defs>
<clipPath id="clip0_249_574">
<rect width="20" height="20" fill="white"/>
</clipPath>
</defs>
</svg>
