<svg width="20" height="20" viewBox="0 0 20 20" fill="none" xmlns="http://www.w3.org/2000/svg">
<g clip-path="url(#clip0_249_569)">
<path d="M19.7742 18.595C19.9257 18.7561 20.007 18.9708 20.0002 19.1919C19.9934 19.413 19.899 19.6223 19.7379 19.7738C19.5768 19.9253 19.3621 20.0066 19.141 19.9998C18.92 19.993 18.7107 19.8986 18.5592 19.7375L13.99 14.8717C13.1267 14.8992 9.15083 15.0175 10.3967 13.1383C10.501 13.0323 10.6321 12.9566 10.7761 12.9193C10.9201 12.882 11.0715 12.8846 11.2142 12.9267C12.1458 13.2156 13.1291 13.2981 14.0958 13.1683C14.2629 13.1469 14.4326 13.166 14.5907 13.2241C14.7488 13.2821 14.8906 13.3773 15.0042 13.5017L19.7742 18.595ZM12.5 11.6667C13.0472 11.6675 13.5891 11.5602 14.0947 11.3512C14.6004 11.1421 15.0598 10.8353 15.4467 10.4483L19.7558 6.13835C19.8333 6.06098 19.8948 5.9691 19.9368 5.86797C19.9787 5.76684 20.0004 5.65843 20.0005 5.54894C20.0005 5.43944 19.979 5.331 19.9372 5.22981C19.8954 5.12862 19.834 5.03666 19.7567 4.95918C19.6793 4.8817 19.5874 4.82022 19.4863 4.77824C19.3852 4.73627 19.2768 4.71463 19.1673 4.71455C19.0578 4.71447 18.9493 4.73596 18.8481 4.77779C18.7469 4.81962 18.655 4.88098 18.5775 4.95835L14.2683 9.26835C13.9024 9.63111 13.4333 9.87194 12.9252 9.95786C12.4171 10.0438 11.8949 9.97061 11.43 9.74835L17.2558 3.92251C17.3354 3.84564 17.3989 3.75369 17.4426 3.65202C17.4863 3.55035 17.5092 3.441 17.5102 3.33035C17.5112 3.2197 17.4901 3.10997 17.4482 3.00755C17.4063 2.90514 17.3444 2.8121 17.2662 2.73385C17.1879 2.65561 17.0949 2.59373 16.9925 2.55183C16.89 2.50993 16.7803 2.48884 16.6697 2.48981C16.559 2.49077 16.4497 2.51376 16.348 2.55743C16.2463 2.6011 16.1544 2.66459 16.0775 2.74418L10.25 8.57001C10.0277 8.10512 9.95457 7.58291 10.0405 7.07483C10.1264 6.56675 10.3672 6.09764 10.73 5.73168L15.0417 1.42251C15.1935 1.26535 15.2775 1.05484 15.2756 0.836346C15.2737 0.617849 15.186 0.408838 15.0315 0.254332C14.877 0.0998249 14.668 0.0121841 14.4495 0.0102854C14.231 0.00838673 14.0205 0.0923821 13.8633 0.24418L9.55333 4.55335C8.87562 5.23336 8.45297 6.12616 8.35658 7.08137C8.2602 8.03658 8.49596 8.99582 9.02417 9.79751L0.244167 18.5775C0.0923683 18.7347 0.00837295 18.9452 0.0102716 19.1637C0.0121703 19.3822 0.0998111 19.5912 0.254318 19.7457C0.408825 19.9002 0.617835 19.9878 0.836332 19.9897C1.05483 19.9916 1.26533 19.9076 1.4225 19.7558L10.2025 10.9758C10.884 11.4264 11.683 11.6666 12.5 11.6667ZM4.54333 10.8042C5.23417 11.455 5.87167 10.5908 6.33583 10.1283C6.52784 9.93424 6.66921 9.69593 6.74753 9.43438C6.82586 9.17283 6.83872 8.89604 6.785 8.62835C6.27083 7.19335 7.5275 5.51835 6.4875 4.36418L2.77417 0.477514C2.54511 0.254967 2.25589 0.104375 1.94222 0.0443328C1.62855 -0.0157098 1.30416 0.0174255 1.00911 0.139648C0.714059 0.26187 0.461261 0.467827 0.281931 0.732089C0.1026 0.996352 0.00458964 1.30735 0 1.62668C0.1975 5.47168 1.6125 7.43335 4.54333 10.8042Z" fill="white"/>
</g>
<defs>
<clipPath id="clip0_249_569">
<rect width="20" height="20" fill="white"/>
</clipPath>
</defs>
</svg>
