<svg width="24" height="20" viewBox="0 0 24 20" fill="none" xmlns="http://www.w3.org/2000/svg">
<path d="M7.38818 11.2974C7.31318 11.2494 7.44817 11.3634 7.38818 11.2974V11.2974ZM16.5388 11.3434C16.4808 11.4064 16.6108 11.2974 16.5388 11.3434V11.3434ZM23.9715 9.72951C23.0696 15.5852 17.9228 20 12 20C6.07723 20 0.931424 15.5842 0.0284582 9.72951C-0.0875373 8.97355 0.154453 8.23159 0.692433 7.69262C1.23141 7.15464 1.97238 6.91265 2.72835 7.02865C4.2853 7.26864 5.74124 7.80861 7.03919 8.58357C7.29518 5.85271 8.37314 3.05685 10.0401 0.943953C10.5131 0.343983 11.228 0 12.002 0C12.776 0 13.4909 0.343983 13.9639 0.943953C15.6289 3.05385 16.7058 5.84971 16.9608 8.58257C18.2578 7.80761 19.7137 7.26764 21.2706 7.02765C22.0266 6.91165 22.7686 7.15364 23.3076 7.69162C23.8455 8.23059 24.0875 8.97255 23.9715 9.72751V9.72951ZM10.944 17.9441C10.6661 15.3482 9.3031 12.9524 7.38818 11.2974C6.02923 10.1825 4.2463 9.28654 2.42437 9.00555C2.40337 9.00255 2.22137 9.00555 2.10738 9.10755C2.05538 9.15354 1.98038 9.26254 2.00538 9.42553C2.70436 13.9623 6.45521 17.4641 10.944 17.9441ZM12 14.2233C12.697 12.6234 13.7319 11.1904 15.0179 10.0245C15.0739 7.29764 14.0879 4.32978 12.395 2.18289C12.265 2.0189 12.078 2.0009 12.003 2.0009C11.928 2.0009 11.741 2.0189 11.611 2.18289C9.91508 4.33278 8.92712 7.30164 8.98212 10.0245C10.2681 11.1904 11.303 12.6234 12 14.2233ZM21.8926 9.10755C21.7686 8.97555 21.5966 9.00255 21.5746 9.00555C19.7507 9.28654 17.8988 10.2255 16.5388 11.3424C14.6229 12.9974 13.3339 15.3472 13.056 17.9441C17.5448 17.4641 21.2956 13.9623 21.9946 9.42453C22.0196 9.26154 21.9396 9.15754 21.8926 9.10755Z" fill="white"/>
</svg>
