<svg width="20" height="20" viewBox="0 0 20 20" fill="none" xmlns="http://www.w3.org/2000/svg">
<path d="M19.267 5.93488L17.2553 3.92238L18.922 2.25572L17.7436 1.07738L16.077 2.74405L14.0653 0.732383C13.8331 0.500191 13.5575 0.316005 13.2542 0.190342C12.9508 0.0646784 12.6257 0 12.2974 0C11.969 0 11.6439 0.0646784 11.3406 0.190342C11.0372 0.316005 10.7616 0.500191 10.5295 0.732383L8.1728 3.08905L11.952 6.86905L6.86863 11.9524L3.08863 8.17322L0.731966 10.5299C0.263288 10.9987 0 11.6345 0 12.2974C0 12.9603 0.263288 13.5961 0.731966 14.0649L2.74363 16.0774L1.07697 17.744L2.2553 18.9224L3.92197 17.2557L5.93363 19.2674C6.16578 19.4996 6.4414 19.6838 6.74474 19.8094C7.04808 19.9351 7.37321 19.9998 7.70155 19.9998C8.02989 19.9998 8.35501 19.9351 8.65836 19.8094C8.9617 19.6838 9.23731 19.4996 9.46947 19.2674L11.8261 16.9107L8.04697 13.1307L13.1303 8.04738L16.9095 11.8265L19.2661 9.46988C19.7348 9.00106 19.9981 8.36529 19.9981 7.70238C19.9981 7.03947 19.7356 6.4037 19.267 5.93488ZM8.29113 18.0891C8.21374 18.1665 8.12183 18.228 8.02067 18.2699C7.9195 18.3119 7.81106 18.3335 7.70155 18.3335C7.59204 18.3335 7.4836 18.3119 7.38243 18.2699C7.28127 18.228 7.18936 18.1665 7.11197 18.0891L1.9103 12.8865C1.75407 12.7303 1.66631 12.5184 1.66631 12.2974C1.66631 12.0764 1.75407 11.8645 1.9103 11.7082L3.08863 10.5299L9.46947 16.9107L8.29113 18.0891ZM18.0886 8.29072L16.9103 9.46988L10.5295 3.08905L11.7078 1.91072C11.7852 1.83324 11.8771 1.77177 11.9783 1.72983C12.0794 1.6879 12.1879 1.66631 12.2974 1.66631C12.4069 1.66631 12.5153 1.6879 12.6165 1.72983C12.7177 1.77177 12.8096 1.83324 12.887 1.91072L18.0886 7.11322C18.2446 7.26946 18.3322 7.4812 18.3322 7.70197C18.3322 7.92273 18.2446 8.13448 18.0886 8.29072Z" fill="white"/>
</svg>
