<svg width="20" height="20" viewBox="0 0 20 20" fill="none" xmlns="http://www.w3.org/2000/svg">
<path d="M5.83333 10C8.59083 10 10.8333 7.7575 10.8333 5H11.6667C12.1275 5 12.5 4.6275 12.5 4.16667C12.5 3.70583 12.1275 3.33333 11.6667 3.33333H10.5417C9.85333 1.39417 8.00583 0 5.83333 0C3.07583 0 0.833333 2.2425 0.833333 5C0.833333 7.7575 3.07583 10 5.83333 10ZM5.83333 8.33333C3.995 8.33333 2.5 6.83833 2.5 5H9.16667C9.16667 6.83833 7.67167 8.33333 5.83333 8.33333ZM5.83333 1.66667C7.06167 1.66667 8.125 2.34167 8.70333 3.33333H2.96333C3.54167 2.34167 4.605 1.66667 5.83333 1.66667ZM11.3342 15.555C11.555 16.1775 11.6667 16.8317 11.6667 17.5V19.1667C11.6667 19.6275 11.2942 20 10.8333 20C10.3725 20 10 19.6275 10 19.1667V17.5C10 17.0225 9.92 16.555 9.76333 16.1117C9.60917 15.6775 9.83667 15.2017 10.27 15.0483C10.7017 14.8958 11.1808 15.1208 11.3342 15.555ZM19.6375 2.80333L16.6667 4.37417V7.5525C16.6667 8.29667 16.3383 8.99667 15.7667 9.47333L11.8308 12.7542C11.3825 13.1275 10.8142 13.3333 10.23 13.3333H5.83333C3.53583 13.3333 1.66667 15.2025 1.66667 17.5V19.1667C1.66667 19.6275 1.29417 20 0.833333 20C0.3725 20 0 19.6275 0 19.1667V17.5C0 14.2842 2.6175 11.6667 5.83333 11.6667H10.23C10.4242 11.6667 10.6142 11.5983 10.7633 11.4742L14.7 8.1925C14.8908 8.03417 15 7.80083 15 7.5525V0.833333C15 0.3725 15.3725 0 15.8333 0C16.3333 0 16.8292 0.106667 17.2925 0.314167L19.6367 1.36333C20.1208 1.69583 20.1208 2.47083 19.6367 2.80417L19.6375 2.80333Z" fill="white"/>
</svg>
