<svg width="60" height="60" viewBox="0 0 60 60" fill="none" xmlns="http://www.w3.org/2000/svg">
<g clip-path="url(#clip0_249_472)">
<path d="M57.3548 17.0925L51.8998 11.635L54.2673 9.2675C54.506 9.03689 54.6965 8.76102 54.8275 8.45601C54.9585 8.151 55.0275 7.82295 55.0304 7.49101C55.0333 7.15906 54.97 6.82986 54.8443 6.52262C54.7186 6.21538 54.533 5.93625 54.2983 5.70152C54.0635 5.46678 53.7844 5.28115 53.4771 5.15545C53.1699 5.02975 52.8407 4.96649 52.5088 4.96938C52.1768 4.97226 51.8488 5.04123 51.5438 5.17225C51.2387 5.30327 50.9629 5.49373 50.7323 5.7325L48.3648 8.1L42.9073 2.645C41.1871 1.00581 38.9021 0.0914307 36.526 0.0914307C34.1499 0.0914307 31.8649 1.00581 30.1448 2.645C29.3062 3.48292 28.6409 4.47788 28.187 5.57302C27.7331 6.66817 27.4995 7.84203 27.4995 9.0275C27.4995 10.213 27.7331 11.3868 28.187 12.482C28.6409 13.5771 29.3062 14.5721 30.1448 15.41L35.5998 20.865L20.8648 35.6L15.4073 30.145C13.6871 28.5058 11.4021 27.5914 9.02602 27.5914C6.64991 27.5914 4.36493 28.5058 2.64477 30.145C1.80617 30.9829 1.14091 31.9779 0.68702 33.073C0.233132 34.1682 -0.000488281 35.342 -0.000488281 36.5275C-0.000488281 37.713 0.233132 38.8868 0.68702 39.982C1.14091 41.0771 1.80617 42.0721 2.64477 42.91L8.09977 48.365L5.73227 50.7325C5.4935 50.9631 5.30304 51.239 5.17202 51.544C5.041 51.849 4.97203 52.1771 4.96914 52.509C4.96626 52.841 5.02951 53.1701 5.15522 53.4774C5.28092 53.7846 5.46655 54.0638 5.70128 54.2985C5.93602 54.5332 6.21515 54.7189 6.52239 54.8446C6.82963 54.9703 7.15883 55.0335 7.49077 55.0306C7.82272 55.0277 8.15077 54.9588 8.45578 54.8278C8.76079 54.6967 9.03665 54.5063 9.26727 54.2675L11.6348 51.9L17.0923 57.355C17.9301 58.1932 18.9249 58.8582 20.0199 59.3118C21.1148 59.7655 22.2883 59.999 23.4735 59.999C24.6587 59.999 25.8323 59.7655 26.9272 59.3118C28.0221 58.8582 29.0169 58.1932 29.8548 57.355C30.6933 56.5173 31.3585 55.5225 31.8124 54.4276C32.2662 53.3327 32.4998 52.159 32.4998 50.9738C32.4998 49.7885 32.2662 48.6148 31.8124 47.5199C31.3585 46.425 30.6933 45.4302 29.8548 44.5925L24.3998 39.1375L39.1498 24.4L44.6048 29.855C45.4426 30.6932 46.4374 31.3582 47.5324 31.8118C48.6273 32.2655 49.8008 32.499 50.986 32.499C52.1712 32.499 53.3448 32.2655 54.4397 31.8118C55.5346 31.3582 56.5294 30.6932 57.3673 29.855C58.2058 29.0173 58.871 28.0226 59.3249 26.9276C59.7787 25.8327 60.0123 24.659 60.0123 23.4738C60.0123 22.2885 59.7787 21.1148 59.3249 20.0199C58.871 18.925 58.2058 17.9302 57.3673 17.0925H57.3548Z" fill="#AA8453"/>
</g>
<defs>
<clipPath id="clip0_249_472">
<rect width="60" height="60" fill="white"/>
</clipPath>
</defs>
</svg>
