<svg width="554" height="91" viewBox="0 0 554 91" fill="none" xmlns="http://www.w3.org/2000/svg">
<g clip-path="url(#clip0_881_654)">
<path d="M84.5762 76.0791C81.8976 80.5622 79.5538 84.4431 76.8752 88.8592C73.9288 84.7107 71.1163 80.8967 67.6341 76.0122C66.8305 77.3504 66.3618 78.6217 65.4912 79.4247C53.7724 90.1305 40.1785 93.4092 25.2454 87.8556C10.4461 82.3019 2.14249 71.1945 0.267477 55.5372C-0.80396 46.5041 1.33891 38.207 6.36128 30.7798C7.56664 28.9063 7.70057 27.4342 6.83003 25.5607C5.08894 22.0813 3.41482 18.6019 1.60677 14.9217C2.41035 14.8548 3.34786 14.7879 4.28537 14.7879C9.44166 14.7879 14.531 14.5872 19.6873 14.8548C24.04 15.0556 27.4552 14.1188 30.9374 10.9739C37.366 5.01879 45.8705 3.07835 54.3081 1.80702C71.3172 -0.802535 88.3262 -0.802535 105.067 3.47982C112.099 5.28644 118.862 7.96291 123.885 13.6504C124.621 14.4533 126.228 14.721 127.501 14.7879C135.068 14.8548 142.568 14.8548 150.202 14.8548C148.394 18.4681 146.586 21.6798 145.179 25.1592C144.778 26.2298 145.045 28.0364 145.715 28.9732C162.456 53.7975 148.996 85.5136 119.532 89.9298C107.076 91.8033 96.2281 87.7886 87.1878 79.0232C86.3173 78.2203 85.6476 77.3504 84.5762 76.0791ZM114.509 20.7431C96.8977 20.7431 83.3039 34.5269 83.3039 52.2585C83.3708 68.8526 97.4334 82.7703 114.175 82.8372C131.251 82.9041 145.514 68.6519 145.447 51.5225C145.447 34.5938 131.452 20.6761 114.509 20.7431ZM38.9731 20.6761C21.5623 20.6092 7.76754 34.2592 7.63361 51.7232C7.56664 68.7857 21.5623 82.8372 38.6383 82.7703C55.7144 82.7703 69.5761 68.8526 69.71 51.6563C69.8439 34.9283 55.8483 20.7431 38.9731 20.6761ZM76.8752 45.0989C82.7681 26.4975 93.6164 15.0556 113.84 15.1894C98.1701 0.334966 51.5625 1.94085 40.3124 15.2563C60.3349 15.1225 70.9823 26.6313 76.8752 45.0989Z" fill="#AA8453"/>
<path d="M251.252 69.3876C251.252 77.0156 251.252 83.8406 251.252 90.9332C248.707 90.9332 246.431 90.9332 243.752 90.9332C243.752 71.7295 243.752 52.5259 243.752 33.1215C245.627 33.1215 247.569 33.1215 249.846 33.1215C250.047 34.995 250.315 36.9354 250.515 39.0097C250.984 38.809 251.319 38.742 251.453 38.5413C255.94 32.8538 261.899 31.0472 268.73 32.4523C275.828 33.9913 279.913 38.809 281.788 45.5001C283.797 52.6597 283.328 59.6185 279.712 66.2428C274.556 75.8112 260.359 79.0229 251.252 69.3876ZM251.386 53.7303H251.319C251.319 55.2023 251.252 56.6075 251.319 58.0795C251.52 63.6332 254.935 67.9156 260.225 69.12C265.582 70.3244 270.873 67.9156 273.216 62.8303C275.895 57.009 275.962 50.92 273.35 45.0317C271.074 39.9465 266.319 37.4707 261.163 38.3406C256.073 39.2104 251.989 43.4928 251.386 48.7788C251.252 50.3847 251.386 52.0575 251.386 53.7303Z" fill="#AA8453"/>
<path d="M358.128 38.3406C358.128 30.0435 358.128 22.4156 358.128 14.52C360.472 14.52 362.548 14.52 364.892 14.52C364.892 34.259 364.892 53.998 364.892 73.9377C363.15 73.9377 361.543 73.9377 359.668 73.9377C359.4 71.9303 359.066 69.923 358.731 67.3134C357.86 68.2502 357.391 68.6516 356.99 69.12C349.891 77.484 337.034 76.8149 330.806 67.7149C325.65 60.1538 325.784 47.3068 331.074 39.8796C337.704 30.7796 348.485 29.9097 358.128 38.3406ZM358.463 53.5965C358.329 53.5965 358.262 53.5965 358.128 53.5296C358.128 52.0575 358.195 50.6524 358.128 49.1803C357.994 43.7605 354.445 39.1436 349.691 38.073C344.4 36.8016 339.177 38.9428 336.565 43.8274C333.15 50.2509 333.15 56.8752 336.365 63.3656C338.507 67.648 342.257 69.7891 347.012 69.5215C351.967 69.1869 355.717 66.6443 357.325 61.8266C358.195 59.2171 358.128 56.3399 358.463 53.5965Z" fill="#AA8453"/>
<path d="M502.503 53.73C502.503 68.852 489.914 78.5542 475.985 74.0711C468.15 71.5285 463.597 64.9711 462.86 55.0682C461.923 42.288 470.896 32.3182 483.217 32.3851C495.003 32.452 502.503 40.816 502.503 53.73ZM495.941 53.2616C495.07 50.3844 494.535 47.2395 493.262 44.2954C491.387 39.9461 487.771 37.4704 483.017 37.4704C478.195 37.4035 474.378 39.6785 472.168 44.0947C469.222 49.8491 469.021 55.8711 471.499 61.8263C473.441 66.577 476.722 69.7888 482.347 69.8557C487.57 69.8557 491.856 67.0454 493.865 61.7594C494.802 59.2167 495.204 56.4064 495.941 53.2616Z" fill="#AA8453"/>
<path d="M291.766 39.3442C291.498 38.5412 291.029 37.3368 290.427 35.7978C297.324 32.3853 304.221 30.9802 311.387 33.8574C316.074 35.7309 318.619 39.7456 318.82 44.5633C319.155 54.1986 318.954 63.9008 318.954 73.6699C314.4 74.8743 313.998 74.6067 312.726 69.1199C311.855 69.8559 311.119 70.3912 310.449 71.0603C306.297 74.8074 301.342 75.6772 296.119 74.5397C291.9 73.6699 288.953 70.7927 288.016 66.5103C286.944 61.6927 287.748 57.1427 291.766 53.7302C296.654 49.5817 302.614 48.7787 308.641 48.3772C312.726 48.1096 312.86 48.0427 311.989 44.0949C311.052 39.8794 308.239 37.2699 303.686 37.4037C299.869 37.6044 296.052 38.6081 291.766 39.3442ZM312.525 58.2802C312.525 57.1427 312.726 56.0052 312.458 54.9346C312.257 54.1986 311.387 52.9941 310.784 52.9941C306.23 53.0611 301.61 53.1949 297.659 56.0052C294.645 58.2133 293.574 62.0272 294.913 65.5736C295.985 68.5177 298.596 69.9897 302.48 69.8559C308.775 69.6552 312.525 65.3059 312.525 58.2802Z" fill="#AA8453"/>
<path d="M371.989 33.6568C372.792 33.5899 373.462 33.5899 374.065 33.4561C377.681 32.7869 379.355 34.3928 380.426 37.8053C383.507 47.4406 386.989 56.8752 390.404 66.7781C390.873 65.9083 391.275 65.3061 391.543 64.57C394.623 55.7377 397.636 46.9053 400.717 38.1399C402.592 32.7869 403.261 32.5193 409.288 33.9913C406.409 41.3516 403.529 48.645 400.65 55.9384C398.507 61.2913 396.565 66.7781 394.221 72.0641C393.752 73.0678 391.944 73.8038 390.672 73.9377C389.132 74.1384 387.123 74.8744 386.185 72.3987C381.498 59.8193 376.676 47.2399 371.922 34.6605C371.922 34.4597 371.989 34.259 371.989 33.6568Z" fill="#AA8453"/>
<path d="M174.31 39.0095C172.97 38.9426 171.966 38.8756 171.028 38.8087C170.158 38.8087 169.287 38.8087 168.082 38.8087C168.082 36.9352 168.082 35.1955 168.082 33.1881C169.957 33.0543 171.899 32.9205 173.841 32.7198C174.243 30.1771 173.975 27.233 175.247 25.4264C176.252 24.0212 179.198 23.9543 181.743 23.0845C181.743 26.5639 181.743 29.508 181.743 32.8536C185.359 32.8536 188.64 32.8536 192.189 32.8536C192.189 34.9279 192.189 36.6006 192.189 38.6749C188.841 38.6749 185.56 38.6749 181.676 38.6749C181.676 41.0168 181.676 43.0911 181.676 45.1654C181.676 50.5183 181.676 55.8712 181.743 61.2242C181.81 67.7146 183.283 69.1198 189.712 68.919C190.247 68.919 190.783 68.919 191.319 68.919C192.725 74.3389 192.457 74.7404 187.167 75.2756C179.533 76.0117 174.845 72.1977 174.511 64.5698C174.176 57.3433 174.377 50.1168 174.377 42.8234C174.31 41.619 174.31 40.4146 174.31 39.0095Z" fill="#AA8453"/>
<path d="M453.954 39.0096C451.343 38.4743 448.798 37.6044 446.186 37.4037C442.436 37.136 439.624 39.1434 438.954 42.0875C438.284 44.8978 439.758 47.4404 443.307 49.1132C445.383 50.1169 447.659 50.8529 449.735 51.9235C455.293 54.6 458.106 59.0831 457.436 64.0345C456.7 69.5213 453.284 73.3353 447.191 74.4728C441.767 75.4765 436.342 75.2757 431.119 72.1978C431.588 70.6588 432.057 69.2537 432.458 67.9823C436.208 68.6515 439.691 69.5213 443.307 69.722C447.191 69.9897 449.869 67.9154 450.472 65.0382C451.209 61.6926 449.936 59.0831 446.253 57.2096C443.508 55.8044 440.561 54.7338 437.816 53.1948C433.932 50.9868 431.789 47.7081 432.258 43.0243C432.726 38.4073 435.338 35.5301 439.356 33.7235C443.307 31.9838 447.392 32.0507 451.476 33.0544C456.03 34.125 456.365 34.9948 453.954 39.0096Z" fill="#AA8453"/>
<path d="M206.453 74.205C203.909 74.205 201.699 74.205 199.154 74.205C199.154 60.555 199.154 47.0388 199.154 33.1881C200.895 33.1881 202.837 33.1881 205.181 33.1881C205.382 35.2623 205.583 37.4035 205.851 40.3476C209.065 34.9278 212.815 31.5822 219.177 32.2513C219.177 34.5263 219.177 36.6675 219.177 38.9425C218.976 39.0094 218.708 39.277 218.373 39.277C210.739 39.6116 206.721 43.5594 206.587 51.1873C206.453 58.2131 206.52 65.2388 206.52 72.2645C206.52 72.7998 206.453 73.3351 206.453 74.205Z" fill="#AA8453"/>
<path d="M517.236 40.4145C519.981 36.3998 522.861 33.3218 527.548 32.5189C528.954 32.2512 530.762 31.9836 530.629 34.2586C530.495 35.9314 532.035 38.7417 528.62 38.8755C521.253 39.1432 517.905 45.9682 517.838 51.5218C517.838 58.8821 517.838 66.2424 517.838 73.8704C515.494 73.8704 513.352 73.8704 511.008 73.8704C511.008 60.5549 511.008 47.3733 511.008 33.2549C512.95 33.7233 515.428 33.5895 516.231 34.6601C517.303 36.0652 516.968 38.4071 517.236 40.4145Z" fill="#AA8453"/>
<path d="M225.605 33.1211C228.016 33.1211 230.226 33.1211 232.704 33.1211C232.704 46.7711 232.704 60.3542 232.704 74.138C230.36 74.138 228.083 74.138 225.605 74.138C225.605 60.5549 225.605 47.0387 225.605 33.1211Z" fill="#AA8453"/>
<path d="M422.28 73.9374C420.138 73.9374 418.129 73.9374 415.986 73.9374C415.852 73.2014 415.651 72.5992 415.651 71.9301C415.651 60.0198 415.651 48.1095 415.584 36.2661C415.584 33.7234 416.722 33.1882 418.798 33.3889C420.539 33.5227 422.682 32.7867 422.682 35.9315C422.548 48.1764 422.615 60.4212 422.615 72.5992C422.615 73.0007 422.481 73.2683 422.28 73.9374Z" fill="#AA8453"/>
<path d="M545.562 45.4999C540.808 45.4999 536.991 41.7529 537.058 37.069C537.058 32.4521 540.941 28.7051 545.696 28.7051C550.584 28.7051 554.134 32.2514 554.067 37.136C554 41.9536 550.384 45.4999 545.562 45.4999ZM538.464 37.2029C538.464 41.1507 541.812 44.4293 545.696 44.3624C549.446 44.2286 552.66 40.9499 552.727 37.2698C552.794 33.4558 549.379 30.0433 545.495 29.9764C541.611 29.9764 538.464 33.1882 538.464 37.2029Z" fill="#AA8453"/>
<path d="M234.042 20.6758C234.042 23.4191 231.9 25.4934 229.154 25.4934C226.342 25.4934 224.4 23.3522 224.467 20.475C224.533 17.7985 226.475 15.925 229.221 15.925C232.034 15.8581 234.042 17.7985 234.042 20.6758Z" fill="#AA8453"/>
<path d="M423.42 20.676C423.42 23.2855 421.611 25.159 419.134 25.226C416.656 25.2929 414.446 23.0179 414.513 20.4752C414.58 17.9995 416.589 16.1929 419.134 16.1929C421.812 16.2598 423.42 17.9326 423.42 20.676Z" fill="#AA8453"/>
<path d="M114.241 33.1884C124.353 33.1215 132.724 41.1509 132.925 51.1208C133.058 61.559 124.956 70.0568 114.643 70.1906C104.398 70.3244 95.96 62.2281 95.893 52.0575C95.826 41.4855 103.795 33.3222 114.241 33.1884ZM101.451 51.723C101.518 58.9494 107.411 64.7708 114.509 64.6369C121.541 64.5031 127.233 58.7487 127.233 51.723C127.3 44.6303 121.34 38.7421 114.174 38.809C107.277 38.8759 101.384 44.8311 101.451 51.723Z" fill="#AA8453"/>
<path d="M38.7065 70.2575C28.4608 70.2575 20.1572 62.0943 20.0902 51.9237C20.0233 41.5524 28.4608 33.1215 38.7065 33.1884C48.7512 33.2553 57.1218 41.4854 57.1888 51.3884C57.3227 61.6928 49.019 70.1906 38.7065 70.2575ZM51.4298 51.9237C51.4967 44.6303 45.8717 38.8759 38.6395 38.8759C31.5412 38.8759 25.7153 44.6972 25.7822 51.9237C25.7822 58.9494 31.5412 64.57 38.6395 64.6369C45.6708 64.57 51.4298 58.9494 51.4298 51.9237Z" fill="#AA8453"/>
<path d="M547.706 40.95C546.835 39.6117 546.166 38.4742 545.027 36.7345C544.358 38.3404 543.956 39.2772 543.554 40.2139C543.353 40.2139 543.152 40.2139 542.951 40.2139C542.951 38.0728 542.818 35.8647 543.085 33.7904C543.152 33.322 544.893 32.7198 545.764 32.9206C546.568 33.0544 547.84 34.0581 547.907 34.7941C548.175 36.6676 547.84 38.6081 547.706 40.95Z" fill="#AA8453"/>
<path d="M120.068 51.7896C120.068 55.2021 117.859 57.4102 114.443 57.4102C111.095 57.4771 108.417 54.9345 108.35 51.7227C108.35 48.5779 111.162 45.7676 114.309 45.7676C117.658 45.7676 120.135 48.3771 120.068 51.7896Z" fill="#AA8453"/>
<path d="M44.7331 51.7228C44.7331 55.1353 41.9875 57.8787 38.5723 57.8787C35.2241 57.8787 32.4785 55.0684 32.4785 51.6559C32.4785 48.2434 35.1571 45.5669 38.6393 45.5669C42.1215 45.5669 44.7331 48.2434 44.7331 51.7228Z" fill="#AA8453"/>
</g>
<defs>
<clipPath id="clip0_881_654">
<rect width="554" height="91" fill="white"/>
</clipPath>
</defs>
</svg>
