<svg width="60" height="60" viewBox="0 0 60 60" fill="none" xmlns="http://www.w3.org/2000/svg">
<path d="M32.5 54.9999C32.5 39.8124 44.8125 27.4999 60 27.4999C60 42.6874 47.6875 54.9999 32.5 54.9999ZM27.5 54.9999C27.5 39.8124 15.1875 27.4999 0 27.4999C0 42.6874 12.3125 54.9999 27.5 54.9999ZM30 42.4999C32.565 36.3699 36.955 31.1849 42.4875 27.6324C41.9675 19.4249 38.1775 11.3074 31.7675 4.89995L30 3.13245L28.2325 4.89995C21.825 11.3074 18.0325 19.4249 17.5125 27.6324C23.045 31.1849 27.435 36.3699 30 42.4999Z" fill="#AA8453"/>
</svg>
