<svg width="45" height="45" viewBox="0 0 45 45" fill="none" xmlns="http://www.w3.org/2000/svg">
<g clip-path="url(#clip0_631_520)">
<path d="M38.5347 22.7606C39.6541 17.9306 40.4997 11.7131 33.7497 11.25H16.8916C16.8597 11.2331 5.6678 11.265 5.62468 11.25C4.83374 11.2472 4.05091 11.4094 3.32614 11.7261C2.60138 12.0428 1.95059 12.5071 1.4153 13.0894C0.893492 13.6628 0.498925 14.3402 0.257529 15.077C0.0161321 15.8138 -0.0666303 16.5933 0.0146794 17.3644C0.759533 24.4124 2.75046 31.2721 5.89468 37.6237C6.96808 39.839 8.6448 41.7063 10.7321 43.0112C12.8194 44.316 15.2325 45.0054 17.6941 45H21.6822C23.7966 45.0046 25.8804 44.4949 27.754 43.515C29.6276 42.5351 31.2348 41.1143 32.4372 39.375H35.6247C45.1703 39.6787 49.4566 24.675 38.5347 22.7606ZM15.5509 24.6019L16.8747 23.2762C17.4672 23.9569 18.8528 24.8888 18.7497 25.9294V29.0625C18.7497 29.3111 18.6509 29.5496 18.4751 29.7254C18.2993 29.9012 18.0608 30 17.8122 30C17.0041 29.9137 14.9847 30.4106 14.9997 29.0625C15.1141 28.0631 14.6247 25.3294 15.5509 24.6019ZM21.6822 41.25H17.6941C15.9332 41.2524 14.2074 40.758 12.7149 39.8237C11.2224 38.8894 10.0237 37.553 9.25655 35.9681C6.31291 30.0213 4.44836 23.5992 3.74968 17.0006C3.72416 16.7423 3.75413 16.4814 3.83758 16.2356C3.92104 15.9898 4.05605 15.7646 4.23358 15.5752C4.41111 15.3858 4.62706 15.2365 4.86697 15.1373C5.10688 15.0381 5.36522 14.9913 5.62468 15H14.9997V19.8469C13.3647 21.4537 11.0622 23.385 11.2497 25.9275V29.0625C11.2497 30.3057 11.7435 31.498 12.6226 32.3771C13.5017 33.2561 14.694 33.75 15.9372 33.75H17.8122C18.4278 33.75 19.0373 33.6287 19.606 33.3932C20.1747 33.1576 20.6915 32.8123 21.1267 32.3771C21.562 31.9418 21.9073 31.425 22.1429 30.8563C22.3784 30.2876 22.4997 29.6781 22.4997 29.0625V25.9294C22.6872 23.3925 20.3866 21.4481 18.7497 19.8487V15H33.7497C34.0178 14.995 34.2839 15.0469 34.5305 15.1523C34.7771 15.2576 34.9986 15.4141 35.1803 15.6112C35.3486 15.7978 35.4754 16.0179 35.5524 16.2571C35.6293 16.4963 35.6546 16.7491 35.6266 16.9987C34.9293 23.5962 33.0653 30.0172 30.1216 35.9625C29.3556 37.5492 28.1571 38.8872 26.664 39.8227C25.1709 40.7581 23.4441 41.2529 21.6822 41.25ZM35.6247 35.625H34.4191C35.7498 32.6474 36.8426 29.569 37.6872 26.4187C41.2328 27.0281 41.2497 29.1506 41.2497 30C41.2497 31.4918 40.657 32.9226 39.6022 33.9775C38.5473 35.0324 37.1165 35.625 35.6247 35.625ZM16.9234 5.625V1.875C16.9234 1.37772 17.121 0.900805 17.4726 0.549175C17.8242 0.197544 18.3011 0 18.7984 0C19.2957 0 19.7726 0.197544 20.1243 0.549175C20.4759 0.900805 20.6734 1.37772 20.6734 1.875V5.625C20.6734 6.12228 20.4759 6.59919 20.1243 6.95082C19.7726 7.30246 19.2957 7.5 18.7984 7.5C18.3011 7.5 17.8242 7.30246 17.4726 6.95082C17.121 6.59919 16.9234 6.12228 16.9234 5.625ZM24.4234 5.625V1.875C24.4234 1.37772 24.621 0.900805 24.9726 0.549175C25.3242 0.197544 25.8012 0 26.2984 0C26.7957 0 27.2726 0.197544 27.6243 0.549175C27.9759 0.900805 28.1734 1.37772 28.1734 1.875V5.625C28.1734 6.12228 27.9759 6.59919 27.6243 6.95082C27.2726 7.30246 26.7957 7.5 26.2984 7.5C25.8012 7.5 25.3242 7.30246 24.9726 6.95082C24.621 6.59919 24.4234 6.12228 24.4234 5.625ZM9.42343 5.625V1.875C9.42343 1.37772 9.62097 0.900805 9.97261 0.549175C10.3242 0.197544 10.8011 0 11.2984 0C11.7957 0 12.2726 0.197544 12.6243 0.549175C12.9759 0.900805 13.1734 1.37772 13.1734 1.875V5.625C13.1734 6.12228 12.9759 6.59919 12.6243 6.95082C12.2726 7.30246 11.7957 7.5 11.2984 7.5C10.8011 7.5 10.3242 7.30246 9.97261 6.95082C9.62097 6.59919 9.42343 6.12228 9.42343 5.625Z" fill="white"/>
</g>
<defs>
<clipPath id="clip0_631_520">
<rect width="45" height="45" fill="white"/>
</clipPath>
</defs>
</svg>
