<svg width="60" height="60" viewBox="0 0 60 60" fill="none" xmlns="http://www.w3.org/2000/svg">
<g clip-path="url(#clip0_907_353)">
<path d="M42.5 20V17.5C42.5 7.85 34.65 0 25 0C15.35 0 7.5 7.85 7.5 17.5V20H0V52.5C0 56.635 3.365 60 7.5 60H31.815C27.6475 56.3325 25 50.975 25 45H22.5V35H27.7175C31.1825 29.035 37.62 25 45 25C46.73 25 48.3975 25.2425 50 25.6575V20H42.5ZM37.5 20H12.5V17.5C12.5 10.6075 18.1075 5 25 5C31.8925 5 37.5 10.6075 37.5 17.5V20ZM45 30C36.715 30 30 36.715 30 45C30 53.285 36.715 60 45 60C53.285 60 60 53.285 60 45C60 36.715 53.285 30 45 30ZM46.5475 51.035C45.6025 51.98 44.3475 52.5 43.0125 52.5H43.0075C41.6725 52.5 40.4175 51.9775 39.475 51.0325L34.445 46.0025L37.98 42.4675L43.0125 47.5L52.05 38.4625L55.585 41.9975L46.5475 51.035Z" fill="#AA8453"/>
</g>
<defs>
<clipPath id="clip0_907_353">
<rect width="60" height="60" fill="white"/>
</clipPath>
</defs>
</svg>
