<svg width="13" height="16" viewBox="0 0 13 16" fill="none" xmlns="http://www.w3.org/2000/svg">
<g clip-path="url(#clip0_768_824)">
<path d="M8.78182 -2.32831e-10C8.91494 0.03125 9.05186 0.0585937 9.18498 0.0898437C10.7786 0.492187 11.8245 1.87891 11.7941 3.56641C11.7903 3.74219 11.7713 3.91797 11.7561 4.09375C11.6458 4.03516 11.5317 3.98047 11.4252 3.91797C10.9802 3.67187 10.4972 3.56641 9.99891 3.5625C8.7628 3.55469 7.5267 3.55859 6.2906 3.5625C6.11945 3.5625 5.94829 3.57422 5.77714 3.59375C5.44625 3.63281 5.10394 3.92969 5.03928 4.26562C4.90997 4.95312 4.79206 5.64453 4.67416 6.33594C4.52963 7.19141 4.3889 8.04687 4.25198 8.90234C4.22916 9.05469 4.22536 9.21484 4.21014 9.36719C4.1607 9.60547 4.10365 9.83984 4.06561 10.0781C3.92489 10.9141 3.79177 11.75 3.65485 12.5859C3.59019 12.9727 3.52173 13.3594 3.45707 13.7461C3.43425 13.7734 3.40763 13.7969 3.38861 13.8242C3.23647 14.0352 3.0387 14.1523 2.78387 14.1523C2.09926 14.1523 1.41465 14.1602 0.730036 14.1523C0.254612 14.1484 -0.0648737 13.7578 0.0111942 13.2812C0.205167 12.0508 0.410551 10.8203 0.612131 9.58984C0.851744 8.12891 1.09136 6.66797 1.33097 5.20703C1.57819 3.69922 1.82541 2.19531 2.06883 0.6875C2.12588 0.332031 2.32746 0.121094 2.63934 -0.00390625C4.68557 -2.32831e-10 6.7356 -2.32831e-10 8.78182 -2.32831e-10Z" fill="#002987"/>
<path d="M3.45749 13.7539C3.52595 13.3672 3.59441 12.9805 3.65526 12.5938C3.79218 11.7578 3.9253 10.9219 4.06603 10.0859C4.10787 9.84766 4.16111 9.61328 4.21056 9.375C4.38171 9.04688 4.65936 8.91797 5.01307 8.91016C5.7167 8.90234 6.42033 8.91016 7.12396 8.86719C7.74391 8.82812 8.33344 8.61719 8.88493 8.32812C9.5239 7.99609 10.0792 7.55078 10.5432 6.98438C11.0224 6.39453 11.38 5.73438 11.5815 4.99609C11.6576 4.71875 11.707 4.42969 11.7679 4.14844C12.3993 4.60547 12.8214 5.22656 12.9393 6.00781C13.1828 7.60156 12.6579 8.94922 11.5587 10.0742C10.9235 10.7188 10.1553 11.125 9.28429 11.3008C8.86591 11.3828 8.42852 11.4102 8.00254 11.3984C7.37118 11.3828 6.87674 11.7656 6.77024 12.5195C6.62952 13.5039 6.45836 14.4805 6.28721 15.4609C6.22636 15.8125 5.97914 16.0039 5.62922 16.0039C5.04731 16.0039 4.46158 16.0039 3.87966 16.0039C3.42706 16.0039 3.1418 15.6289 3.22548 15.1641C3.31296 14.6953 3.38142 14.2227 3.45749 13.7539Z" fill="#0084CB"/>
<path d="M11.7722 4.14843C11.7113 4.42968 11.6619 4.71874 11.5858 4.99609C11.3842 5.73828 11.0267 6.39453 10.5475 6.98437C10.0873 7.55078 9.52818 7.99609 8.88921 8.32812C8.33392 8.61718 7.7482 8.82812 7.12824 8.86718C6.42842 8.91015 5.72099 8.89843 5.01736 8.91015C4.66745 8.91406 4.3898 9.04687 4.21484 9.37499C4.23006 9.21874 4.23006 9.06249 4.25668 8.91015C4.3936 8.05468 4.53433 7.19921 4.67886 6.34374C4.79676 5.65234 4.91086 4.96093 5.04398 4.27343C5.10864 3.93749 5.45095 3.64062 5.78184 3.60156C5.95299 3.58203 6.12415 3.57031 6.2953 3.57031C7.5314 3.5664 8.76751 3.56249 10.0036 3.57031C10.5019 3.57421 10.9849 3.67968 11.4299 3.92578C11.5402 3.98828 11.6505 4.04296 11.7608 4.10156C11.7646 4.11328 11.7684 4.1289 11.7722 4.14843Z" fill="#00186A"/>
</g>
<defs>
<clipPath id="clip0_768_824">
<rect width="13" height="16" fill="white"/>
</clipPath>
</defs>
</svg>
