<svg width="60" height="60" viewBox="0 0 60 60" fill="none" xmlns="http://www.w3.org/2000/svg">
<g clip-path="url(#clip0_249_461)">
<path d="M32.5001 31.0349L3.61761 59.9449L0.0851121 56.4099L28.9651 27.4999L27.2001 25.7324C25.7964 24.3243 25.0081 22.417 25.0081 20.4287C25.0081 18.4404 25.7964 16.5331 27.2001 15.1249L42.3626 -0.0550537L45.8951 3.47995L30.7326 18.6599C30.5002 18.8921 30.3158 19.1678 30.19 19.4713C30.0642 19.7748 29.9994 20.1002 29.9994 20.4287C29.9994 20.7572 30.0642 21.0826 30.19 21.386C30.3158 21.6895 30.5002 21.9653 30.7326 22.1974L32.5001 23.9649L49.4326 7.01495L52.9651 10.5524L36.0301 27.4999L37.7951 29.2674C38.2639 29.7361 38.8997 29.9994 39.5626 29.9994C40.2255 29.9994 40.8613 29.7361 41.3301 29.2674L56.5001 14.0874L60.0251 17.6249L44.8626 32.8024C43.4565 34.2062 41.5508 34.9946 39.5639 34.9946C37.577 34.9946 35.6713 34.2062 34.2651 32.8024L32.5001 31.0349ZM15.3576 34.0499L22.0801 27.3199C20.8872 25.5268 20.1839 23.4529 20.04 21.3041C19.8962 19.1552 20.3168 17.0061 21.2601 15.0699L8.34011 1.42995C7.65902 0.748304 6.79102 0.284033 5.84597 0.0958929C4.90091 -0.0922474 3.92129 0.00419949 3.03107 0.373027C2.14085 0.741855 1.38005 1.36648 0.844969 2.16786C0.309884 2.96924 0.0245618 3.91135 0.0251121 4.87495C0.00706879 9.49168 1.15322 14.0384 3.35761 18.0949C6.42382 24.0553 10.4817 29.4506 15.3576 34.0499ZM39.5626 39.9999C37.1135 40.0056 34.7176 39.2853 32.6776 37.9299L28.4276 42.1799C32.6714 44.0917 37.3214 44.9264 41.9651 44.6099L56.3351 59.8824L59.9751 56.4574L43.6376 39.2624C42.33 39.734 40.9526 39.9833 39.5626 39.9999Z" fill="#AA8453"/>
</g>
<defs>
<clipPath id="clip0_249_461">
<rect width="60" height="60" fill="white"/>
</clipPath>
</defs>
</svg>
