<svg width="60" height="60" viewBox="0 0 60 60" fill="none" xmlns="http://www.w3.org/2000/svg">
<g clip-path="url(#clip0_881_827)">
<path d="M20 30C11.7275 30 5 23.2725 5 15C5 6.7275 11.7275 0 20 0C28.2725 0 35 6.7275 35 15C35 23.2725 28.2725 30 20 30ZM36.86 60C36.3325 60 35.805 59.8325 35.36 59.5C34.51 58.865 34.1575 57.76 34.475 56.7475L36.8275 49.2075L30.885 44.3725C30.085 43.695 29.7925 42.59 30.155 41.605C30.5175 40.62 31.4525 39.9675 32.5 39.9675H40.0025L42.6575 32.5175C43.0225 31.54 43.9575 30.89 45 30.89C46.0425 30.89 46.9775 31.54 47.3425 32.5175L49.9975 39.9675H57.5C58.55 39.9675 59.4875 40.625 59.8475 41.61C60.2075 42.595 59.9125 43.7025 59.11 44.38L53.195 49.1975L55.6425 56.6475C55.9775 57.655 55.6375 58.765 54.795 59.4125C53.9525 60.06 52.7925 60.105 51.905 59.5275L45.02 55.045L38.25 59.575C37.83 59.8575 37.345 60 36.86 60ZM24.8425 60H2.5C1.12 60 0 58.88 0 57.5C0 45.095 10.095 35 22.5 35H24.8425C25.7075 35 26.51 35.45 26.9675 36.185C27.4225 36.92 27.465 37.84 27.08 38.6125C25.7 41.3875 25 44.38 25 47.5C25 50.62 25.7 53.61 27.08 56.3875C27.465 57.1625 27.4225 58.0825 26.9675 58.8175C26.5125 59.5525 25.7075 60 24.8425 60Z" fill="#AA8453"/>
</g>
<defs>
<clipPath id="clip0_881_827">
<rect width="60" height="60" fill="white"/>
</clipPath>
</defs>
</svg>
