<svg width="60" height="60" viewBox="0 0 60 60" fill="none" xmlns="http://www.w3.org/2000/svg">
<g clip-path="url(#clip0_290_555)">
<path d="M60 55C60 55.663 59.7366 56.2989 59.2678 56.7678C58.7989 57.2366 58.163 57.5 57.5 57.5H2.5C1.83696 57.5 1.20107 57.2366 0.732233 56.7678C0.263392 56.2989 0 55.663 0 55C0 54.3369 0.263392 53.7011 0.732233 53.2322C1.20107 52.7634 1.83696 52.5 2.5 52.5H57.5C58.163 52.5 58.7989 52.7634 59.2678 53.2322C59.7366 53.7011 60 54.3369 60 55ZM5 47.5H55C55.663 47.5 56.2989 47.2366 56.7678 46.7678C57.2366 46.2989 57.5 45.663 57.5 45V42.5C57.4909 35.6433 54.923 29.0369 50.299 23.974C45.675 18.9112 39.3278 15.7565 32.5 15.1275V11.8075C33.4532 11.2571 34.1982 10.4077 34.6194 9.39077C35.0406 8.37389 35.1145 7.24643 34.8296 6.18326C34.5448 5.12009 33.917 4.18064 33.0438 3.51059C32.1706 2.84054 31.1007 2.47736 30 2.47736C28.8993 2.47736 27.8294 2.84054 26.9562 3.51059C26.083 4.18064 25.4552 5.12009 25.1704 6.18326C24.8855 7.24643 24.9594 8.37389 25.3806 9.39077C25.8018 10.4077 26.5468 11.2571 27.5 11.8075V15.1275C20.6722 15.7565 14.325 18.9112 9.70102 23.974C5.07699 29.0369 2.50908 35.6433 2.5 42.5V45C2.5 45.663 2.76339 46.2989 3.23223 46.7678C3.70107 47.2366 4.33696 47.5 5 47.5Z" fill="#AA8453"/>
</g>
<defs>
<clipPath id="clip0_290_555">
<rect width="60" height="60" fill="white"/>
</clipPath>
</defs>
</svg>
