<svg width="60" height="60" viewBox="0 0 60 60" fill="none" xmlns="http://www.w3.org/2000/svg">
<g clip-path="url(#clip0_612_114)">
<path d="M50 37.5H40V27.5C40 26.12 38.8825 25 37.5 25C36.1175 25 35 26.12 35 27.5V37.5H10C4.485 37.5 0 41.985 0 47.5V50C0 55.515 4.485 60 10 60H50C55.515 60 60 55.515 60 50V47.5C60 41.985 55.515 37.5 50 37.5ZM11.25 52.5C9.18 52.5 7.5 50.82 7.5 48.75C7.5 46.68 9.18 45 11.25 45C13.32 45 15 46.68 15 48.75C15 50.82 13.32 52.5 11.25 52.5ZM23.75 52.5C21.68 52.5 20 50.82 20 48.75C20 46.68 21.68 45 23.75 45C25.82 45 27.5 46.68 27.5 48.75C27.5 50.82 25.82 52.5 23.75 52.5ZM37.5 12.5C42.0425 12.5 46.315 14.27 49.53 17.4825C50.5075 18.46 50.5075 20.0425 49.53 21.0175C49.0425 21.505 48.4025 21.75 47.7625 21.75C47.1225 21.75 46.4825 21.505 45.995 21.0175C43.7275 18.7475 40.71 17.5 37.5025 17.5C34.295 17.5 31.2775 18.75 29.01 21.0175C28.035 21.995 26.4525 21.995 25.475 21.0175C24.4975 20.0425 24.4975 18.46 25.475 17.4825C28.6875 14.27 32.96 12.5 37.5025 12.5H37.5ZM15.555 9.545C21.2125 3.48 29.21 0 37.5 0C45.79 0 53.79 3.48 59.445 9.545C60.3875 10.555 60.33 12.1375 59.32 13.08C58.84 13.53 58.225 13.7525 57.615 13.7525C56.945 13.7525 56.28 13.485 55.7875 12.9575C51.0725 7.9025 44.4075 5.0025 37.5 5.0025C30.5925 5.0025 23.925 7.9025 19.2125 12.9575C18.2675 13.9675 16.6875 14.02 15.6775 13.08C14.6675 12.1375 14.6125 10.555 15.555 9.545Z" fill="#AA8453"/>
</g>
<defs>
<clipPath id="clip0_612_114">
<rect width="60" height="60" fill="white"/>
</clipPath>
</defs>
</svg>
