<svg width="60" height="60" viewBox="0 0 60 60" fill="none" xmlns="http://www.w3.org/2000/svg">
<g clip-path="url(#clip0_881_832)">
<path d="M46.4525 5.34963L30.79 0.127125C30.2772 -0.0436772 29.7228 -0.0436772 29.21 0.127125L13.5475 5.34963C11.0573 6.17683 8.89104 7.76777 7.35661 9.8964C5.82218 12.025 4.9976 14.5831 5.00001 17.2071V29.9996C5.00001 48.9071 28 59.3496 28.985 59.7846C29.3046 59.9266 29.6503 59.9999 30 59.9999C30.3497 59.9999 30.6955 59.9266 31.015 59.7846C32 59.3496 55 48.9071 55 29.9996V17.2071C55.0024 14.5831 54.1778 12.025 52.6434 9.8964C51.109 7.76777 48.9427 6.17683 46.4525 5.34963ZM41.795 24.2921L31.115 34.9721C30.678 35.4121 30.1579 35.7609 29.5849 35.9982C29.012 36.2355 28.3976 36.3567 27.7775 36.3546H27.695C27.0622 36.3449 26.438 36.207 25.86 35.9492C25.2821 35.6914 24.7624 35.319 24.3325 34.8546L18.5675 28.8546C18.3178 28.623 18.1181 28.3428 17.9806 28.0312C17.8431 27.7196 17.7708 27.3832 17.768 27.0426C17.7651 26.702 17.8319 26.3645 17.9643 26.0507C18.0966 25.7368 18.2916 25.4534 18.5374 25.2176C18.7832 24.9819 19.0746 24.7988 19.3937 24.6798C19.7128 24.5607 20.0528 24.508 20.393 24.5251C20.7331 24.5421 21.0662 24.6285 21.3718 24.7789C21.6774 24.9293 21.949 25.1405 22.17 25.3996L27.78 31.2496L38.25 20.7496C38.7215 20.2942 39.353 20.0422 40.0085 20.0479C40.664 20.0536 41.291 20.3166 41.7546 20.7801C42.2181 21.2436 42.481 21.8706 42.4867 22.5261C42.4924 23.1816 42.2404 23.8131 41.785 24.2846L41.795 24.2921Z" fill="#AA8453"/>
</g>
<defs>
<clipPath id="clip0_881_832">
<rect width="60" height="60" fill="white"/>
</clipPath>
</defs>
</svg>
