<svg width="20" height="20" viewBox="0 0 20 20" fill="none" xmlns="http://www.w3.org/2000/svg">
<path d="M9.30073 9.74417L8.70323 9.12251C8.47353 8.88372 8.15841 8.7459 7.82714 8.73934C7.49587 8.73278 7.17555 8.85801 6.93656 9.08751C6.8182 9.20126 6.72341 9.33721 6.65759 9.4876C6.59178 9.638 6.55623 9.79988 6.55298 9.96401C6.54973 10.1281 6.57884 10.2913 6.63865 10.4442C6.69846 10.5971 6.7878 10.7367 6.90156 10.855L7.8674 11.86C8.04723 12.0504 8.26324 12.203 8.50277 12.3089C8.7423 12.4148 9.00055 12.4718 9.2624 12.4767H9.29323C9.81234 12.4752 10.3099 12.2692 10.6782 11.9033L13.9791 8.60167C14.2134 8.36726 14.345 8.04938 14.345 7.71792C14.345 7.38647 14.2134 7.06858 13.9791 6.83417C13.863 6.71802 13.7251 6.62587 13.5734 6.563C13.4217 6.50013 13.2591 6.46777 13.0949 6.46777C12.9307 6.46777 12.7681 6.50013 12.6164 6.563C12.4646 6.62587 12.3268 6.71802 12.2107 6.83417L9.30073 9.74417Z" fill="white"/>
<path d="M10.001 19.9999C9.82614 20 9.65325 19.9634 9.49347 19.8924C9.16763 19.7499 1.5918 16.3074 1.5918 9.99995V6.03911C1.59076 5.07685 1.89305 4.13874 2.45571 3.35811C3.01836 2.57749 3.81275 1.99407 4.72597 1.69078L9.60513 0.0641128C9.86218 -0.0208827 10.1398 -0.0208827 10.3968 0.0641128L15.276 1.69078C16.1891 1.99418 16.9834 2.57763 17.5461 3.35823C18.1087 4.13883 18.411 5.07688 18.4101 6.03911V9.99995C18.4101 17.1816 10.7235 19.8266 10.3968 19.9358C10.2692 19.9785 10.1355 20.0001 10.001 19.9999ZM10.001 2.56745L5.5168 4.06245C5.10185 4.20065 4.74093 4.46594 4.48517 4.82071C4.2294 5.17549 4.09178 5.60176 4.0918 6.03911V9.99995C4.0918 13.9458 8.6093 16.6266 10.0651 17.3874C11.5293 16.7766 15.9101 14.5683 15.9101 9.99995V6.03911C15.9102 5.60176 15.7725 5.17549 15.5168 4.82071C15.261 4.46594 14.9001 4.20065 14.4851 4.06245L10.001 2.56745Z" fill="white"/>
</svg>
