<svg width="13" height="13" viewBox="0 0 13 13" fill="none" xmlns="http://www.w3.org/2000/svg">
<path d="M11.6459 7.64779L9.75926 6.5L11.6459 5.35221C11.8421 5.23466 12.013 5.0792 12.1486 4.89491C12.2841 4.71062 12.3816 4.50118 12.4353 4.27881C12.4891 4.05645 12.498 3.8256 12.4616 3.59975C12.4252 3.3739 12.3442 3.15756 12.2232 2.96335C12.1023 2.76914 11.944 2.60096 11.7574 2.46861C11.5708 2.33626 11.3597 2.24239 11.1364 2.19249C10.9132 2.14258 10.6822 2.13763 10.457 2.17793C10.2318 2.21823 10.0169 2.30297 9.8248 2.42721L8.12505 3.51542V1.625C8.12505 1.19402 7.95384 0.780698 7.6491 0.475951C7.34435 0.171205 6.93102 0 6.50005 0C6.06907 0 5.65575 0.171205 5.351 0.475951C5.04625 0.780698 4.87505 1.19402 4.87505 1.625V3.5685L3.1753 2.42721C2.78767 2.19504 2.32435 2.12442 1.88516 2.23057C1.44596 2.33672 1.06604 2.61114 0.827225 2.99471C0.588414 3.37829 0.50983 3.84032 0.608401 4.28128C0.706971 4.72223 0.974809 5.10683 1.35421 5.35221L3.24084 6.5L1.35421 7.64779C0.974809 7.89317 0.706971 8.27777 0.608401 8.71872C0.50983 9.15968 0.588414 9.62171 0.827225 10.0053C1.06604 10.3889 1.44596 10.6633 1.88516 10.7694C2.32435 10.8756 2.78767 10.805 3.1753 10.5728L4.87505 9.46888V11.375C4.87505 11.806 5.04625 12.2193 5.351 12.524C5.65575 12.8288 6.06907 13 6.50005 13C6.93102 13 7.34435 12.8288 7.6491 12.524C7.95384 12.2193 8.12505 11.806 8.12505 11.375V9.43583L9.8248 10.5733C10.2124 10.8055 10.6757 10.8761 11.1149 10.77C11.5541 10.6638 11.9341 10.3894 12.1729 10.0058C12.4117 9.62226 12.4903 9.16022 12.3917 8.71927C12.2931 8.27831 12.0253 7.89317 11.6459 7.64779Z" fill="white"/>
</svg>
