<svg width="60" height="60" viewBox="0 0 60 60" fill="none" xmlns="http://www.w3.org/2000/svg">
<g clip-path="url(#clip0_907_351)">
<path d="M47.5 10H44.7475C43.585 4.3025 38.535 0 32.5 0H27.5C21.465 0 16.4125 4.3025 15.2525 10H12.5C5.6075 10 0 15.6075 0 22.5V47.5C0 54.3925 5.6075 60 12.5 60H15V22.5C15 21.1175 16.12 20 17.5 20C18.88 20 20 21.1175 20 22.5V60H40V22.5C40 21.1175 41.1175 20 42.5 20C43.8825 20 45 21.1175 45 22.5V60H47.5C54.3925 60 60 54.3925 60 47.5V22.5C60 15.6075 54.3925 10 47.5 10ZM20.43 10C21.4625 7.09 24.24 5 27.5 5H32.5C35.76 5 38.5375 7.09 39.57 10H20.43Z" fill="#AA8453"/>
</g>
<defs>
<clipPath id="clip0_907_351">
<rect width="60" height="60" fill="white"/>
</clipPath>
</defs>
</svg>
