<svg width="60" height="60" viewBox="0 0 60 60" fill="none" xmlns="http://www.w3.org/2000/svg">
<g clip-path="url(#clip0_249_478)">
<path d="M42.5002 13.75C42.5002 12.5138 42.8668 11.3055 43.5535 10.2777C44.2403 9.24986 45.2164 8.44878 46.3585 7.97573C47.5005 7.50269 48.7572 7.37892 49.9695 7.62007C51.1819 7.86123 52.2956 8.45649 53.1696 9.33056C54.0437 10.2046 54.639 11.3183 54.8801 12.5307C55.1213 13.743 54.9975 14.9997 54.5245 16.1418C54.0514 17.2838 53.2503 18.2599 52.2225 18.9467C51.1947 19.6334 49.9864 20 48.7502 20C47.0926 20 45.5029 19.3415 44.3308 18.1694C43.1587 16.9973 42.5002 15.4076 42.5002 13.75ZM55.8302 51.225C54.9158 52.0466 53.7296 52.5008 52.5002 52.5C51.4124 52.5007 50.3477 52.1863 49.4347 51.5949C48.5217 51.0036 47.7994 50.1605 47.3552 49.1675C47.1821 48.6815 46.8628 48.2609 46.4411 47.9635C46.0195 47.6662 45.5162 47.5065 45.0002 47.5065C44.4843 47.5065 43.981 47.6662 43.5593 47.9635C43.1377 48.2609 42.8184 48.6815 42.6452 49.1675C42.2006 50.1602 41.4783 51.0031 40.5654 51.5945C39.6525 52.1859 38.588 52.5006 37.5002 52.5006C36.4125 52.5006 35.348 52.1859 34.4351 51.5945C33.5222 51.0031 32.7999 50.1602 32.3552 49.1675C32.1821 48.6815 31.8628 48.2609 31.4411 47.9635C31.0195 47.6662 30.5162 47.5065 30.0002 47.5065C29.4843 47.5065 28.981 47.6662 28.5593 47.9635C28.1377 48.2609 27.8184 48.6815 27.6452 49.1675C27.2006 50.1602 26.4783 51.0031 25.5654 51.5945C24.6525 52.1859 23.588 52.5006 22.5002 52.5006C21.4125 52.5006 20.348 52.1859 19.4351 51.5945C18.5222 51.0031 17.7999 50.1602 17.3552 49.1675C17.1821 48.6815 16.8628 48.2609 16.4411 47.9635C16.0195 47.6662 15.5162 47.5065 15.0002 47.5065C14.4843 47.5065 13.981 47.6662 13.5593 47.9635C13.1377 48.2609 12.8184 48.6815 12.6452 49.1675C12.201 50.1605 11.4788 51.0036 10.5658 51.5949C9.65276 52.1863 8.58803 52.5007 7.50022 52.5C6.27086 52.5008 5.08468 52.0466 4.17022 51.225C3.92824 50.9935 3.64221 50.8129 3.3291 50.6941C3.01599 50.5752 2.6822 50.5205 2.34753 50.5331C2.01287 50.5458 1.68415 50.6255 1.3809 50.7676C1.07766 50.9098 0.806056 51.1114 0.58223 51.3605C0.358403 51.6096 0.186913 51.9012 0.0779402 52.2179C-0.0310326 52.5345 -0.0752664 52.8699 -0.0521351 53.204C-0.0290039 53.5381 0.0610209 53.8642 0.212595 54.1628C0.364168 54.4614 0.574201 54.7266 0.830223 54.9425C2.66046 56.591 5.03701 57.5023 7.50022 57.5C10.3001 57.4768 12.9844 56.3807 15.0002 54.4375C17.0031 56.4005 19.6958 57.5 22.5002 57.5C25.3047 57.5 27.9973 56.4005 30.0002 54.4375C32.0031 56.4005 34.6958 57.5 37.5002 57.5C40.3047 57.5 42.9973 56.4005 45.0002 54.4375C47.0161 56.3807 49.7004 57.4768 52.5002 57.5C54.9634 57.5023 57.34 56.591 59.1702 54.9425C59.4262 54.7266 59.6363 54.4614 59.7879 54.1628C59.9394 53.8642 60.0295 53.5381 60.0526 53.204C60.0757 52.8699 60.0315 52.5345 59.9225 52.2179C59.8135 51.9012 59.642 51.6096 59.4182 51.3605C59.1944 51.1114 58.9228 50.9098 58.6195 50.7676C58.3163 50.6255 57.9876 50.5458 57.6529 50.5331C57.3182 50.5205 56.9845 50.5752 56.6713 50.6941C56.3582 50.8129 56.0722 50.9935 55.8302 51.225ZM0.830223 42.4425C2.66046 44.091 5.03701 45.0023 7.50022 45C10.3001 44.9768 12.9844 43.8807 15.0002 41.9375C17.0031 43.9005 19.6958 45 22.5002 45C25.3047 45 27.9973 43.9005 30.0002 41.9375C32.0031 43.9005 34.6958 45 37.5002 45C40.3047 45 42.9973 43.9005 45.0002 41.9375C47.0161 43.8807 49.7004 44.9768 52.5002 45C54.9634 45.0023 57.34 44.091 59.1702 42.4425C59.4262 42.2266 59.6363 41.9614 59.7879 41.6628C59.9394 41.3642 60.0295 41.0381 60.0526 40.704C60.0757 40.3699 60.0315 40.0345 59.9225 39.7179C59.8135 39.4012 59.642 39.1096 59.4182 38.8605C59.1944 38.6114 58.9228 38.4098 58.6195 38.2676C58.3163 38.1255 57.9876 38.0457 57.6529 38.0331C57.3182 38.0205 56.9845 38.0752 56.6713 38.1941C56.3582 38.3129 56.0722 38.4935 55.8302 38.725C54.9158 39.5466 53.7296 40.0008 52.5002 40C51.4124 40.0007 50.3477 39.6863 49.4347 39.0949C48.5217 38.5036 47.7994 37.6605 47.3552 36.6675C47.1821 36.1815 46.8628 35.7609 46.4411 35.4635C46.0195 35.1662 45.5162 35.0065 45.0002 35.0065C44.4843 35.0065 43.981 35.1662 43.5593 35.4635C43.1377 35.7609 42.8184 36.1815 42.6452 36.6675C42.2006 37.6602 41.4783 38.5031 40.5654 39.0945C39.6525 39.6859 38.588 40.0006 37.5002 40.0006C36.4125 40.0006 35.348 39.6859 34.4351 39.0945C33.5222 38.5031 32.7999 37.6602 32.3552 36.6675C32.1821 36.1815 31.8628 35.7609 31.4411 35.4635C31.0195 35.1662 30.5162 35.0065 30.0002 35.0065C29.4843 35.0065 28.981 35.1662 28.5593 35.4635C28.1377 35.7609 27.8184 36.1815 27.6452 36.6675C27.2006 37.6602 26.4783 38.5031 25.5654 39.0945C24.6525 39.6859 23.588 40.0006 22.5002 40.0006C21.4125 40.0006 20.348 39.6859 19.4351 39.0945C18.5222 38.5031 17.7999 37.6602 17.3552 36.6675C17.1821 36.1815 16.8628 35.7609 16.4411 35.4635C16.0195 35.1662 15.5162 35.0065 15.0002 35.0065C14.4843 35.0065 13.981 35.1662 13.5593 35.4635C13.1377 35.7609 12.8184 36.1815 12.6452 36.6675C12.201 37.6605 11.4788 38.5036 10.5658 39.0949C9.65276 39.6863 8.58803 40.0007 7.50022 40C6.27086 40.0008 5.08468 39.5466 4.17022 38.725C3.92824 38.4935 3.64221 38.3129 3.3291 38.1941C3.01599 38.0752 2.6822 38.0205 2.34753 38.0331C2.01287 38.0457 1.68415 38.1255 1.3809 38.2676C1.07766 38.4098 0.806056 38.6114 0.58223 38.8605C0.358403 39.1096 0.186913 39.4012 0.0779402 39.7179C-0.0310326 40.0345 -0.0752664 40.3699 -0.0521351 40.704C-0.0290039 41.0381 0.0610209 41.3642 0.212595 41.6628C0.364168 41.9614 0.574201 42.2266 0.830223 42.4425ZM7.51772 34.865C7.69928 34.8331 7.87066 34.7586 8.01772 34.6475C8.5646 33.2374 9.52501 32.0257 10.7729 31.1712C12.0208 30.3167 13.4978 29.8595 15.0102 29.8595C16.5226 29.8595 17.9997 30.3167 19.2476 31.1712C20.4954 32.0257 21.4558 33.2374 22.0027 34.6475C22.1521 34.7499 22.3291 34.8047 22.5102 34.8047C22.6914 34.8047 22.8683 34.7499 23.0177 34.6475C23.5646 33.2374 24.525 32.0257 25.7729 31.1712C27.0208 30.3167 28.4978 29.8595 30.0102 29.8595C31.5226 29.8595 32.9997 30.3167 34.2476 31.1712C35.4954 32.0257 36.4558 33.2374 37.0027 34.6475C37.1521 34.7499 37.3291 34.8047 37.5102 34.8047C37.6914 34.8047 37.8683 34.7499 38.0177 34.6475C38.5633 33.2382 39.5218 32.0265 40.7678 31.1714C42.0138 30.3162 43.489 29.8574 45.0002 29.855C45.1477 29.855 45.2952 29.855 45.4427 29.87L30.0377 7.71998C28.8781 6.08285 27.3378 4.75226 25.5496 3.84289C23.7613 2.93352 21.7787 2.47264 19.7727 2.49998H7.50022C7.17982 2.48379 6.85946 2.53255 6.55837 2.64331C6.25729 2.75408 5.98172 2.92457 5.7482 3.14454C5.51468 3.36452 5.32804 3.62943 5.19951 3.92336C5.07097 4.2173 5.00318 4.53418 5.00022 4.85498C5.00022 5.51802 5.26362 6.15391 5.73246 6.62275C6.2013 7.09159 6.83718 7.35498 7.50022 7.35498H19.7727C20.9825 7.35492 22.1743 7.6475 23.2465 8.20776C24.3187 8.76802 25.2395 9.57933 25.9302 10.5725L27.7952 12.975L0.000222716 33.375C1.27147 32.9245 2.64068 32.8251 3.96365 33.0873C5.28663 33.3495 6.51442 33.9636 7.51772 34.865Z" fill="#AA8453"/>
</g>
<defs>
<clipPath id="clip0_249_478">
<rect width="60" height="60" fill="white"/>
</clipPath>
</defs>
</svg>
