<svg width="60" height="60" viewBox="0 0 60 60" fill="none" xmlns="http://www.w3.org/2000/svg">
<g clip-path="url(#clip0_612_116)">
<path d="M50.9475 13.4825C50.3667 11.7405 49.2526 10.2254 47.763 9.15172C46.2734 8.07802 44.4837 7.50017 42.6475 7.5H40L38.64 3.42C38.3083 2.42397 37.6714 1.55763 36.8198 0.943792C35.9681 0.32995 34.9448 -0.000248948 33.895 3.84967e-06H26.105C25.0543 -0.00129957 24.0299 0.328412 23.1773 0.942328C22.3246 1.55624 21.687 2.42316 21.355 3.42L20 7.5H17.3525C15.516 7.50035 13.7261 8.07856 12.2364 9.15273C10.7468 10.2269 9.63285 11.7426 9.0525 13.485L6.88 20H0V27.5H4.38L2.75 32.4225C1.8845 33.234 1.19408 34.214 0.721172 35.3021C0.24826 36.3902 0.00284257 37.5636 0 38.75L0 52.5H7.5V60H17.5V52.5H42.5V60H52.5V52.5H60V38.75C59.9972 37.5636 59.7517 36.3902 59.2788 35.3021C58.8059 34.214 58.1155 33.234 57.25 32.4225L55.62 27.5H60V20H53.12L50.9475 13.4825ZM42.5 41.25C42.5 40.2554 42.8951 39.3016 43.5984 38.5984C44.3016 37.8951 45.2554 37.5 46.25 37.5C47.2446 37.5 48.1984 37.8951 48.9016 38.5984C49.6049 39.3016 50 40.2554 50 41.25C50 42.2446 49.6049 43.1984 48.9016 43.9017C48.1984 44.6049 47.2446 45 46.25 45C45.2554 45 44.3016 44.6049 43.5984 43.9017C42.8951 43.1984 42.5 42.2446 42.5 41.25ZM17.3525 15H42.6475C42.9097 15.0002 43.1653 15.0829 43.3779 15.2363C43.5906 15.3898 43.7496 15.6062 43.8325 15.855L48.5475 30H11.4525L16.1675 15.855C16.2504 15.6062 16.4094 15.3898 16.6221 15.2363C16.8347 15.0829 17.0903 15.0002 17.3525 15ZM13.75 45C12.7554 45 11.8016 44.6049 11.0983 43.9017C10.3951 43.1984 10 42.2446 10 41.25C10 40.2554 10.3951 39.3016 11.0983 38.5984C11.8016 37.8951 12.7554 37.5 13.75 37.5C14.7446 37.5 15.6984 37.8951 16.4017 38.5984C17.1049 39.3016 17.5 40.2554 17.5 41.25C17.5 42.2446 17.1049 43.1984 16.4017 43.9017C15.6984 44.6049 14.7446 45 13.75 45Z" fill="#AA8453"/>
</g>
<defs>
<clipPath id="clip0_612_116">
<rect width="60" height="60" fill="white"/>
</clipPath>
</defs>
</svg>
