<svg width="20" height="20" viewBox="0 0 20 20" fill="none" xmlns="http://www.w3.org/2000/svg">
<path d="M8.33236 15.8333C8.33236 14.9167 9.08236 14.1667 9.99903 14.1667C10.9157 14.1667 11.6657 14.9167 11.6657 15.8333C11.6657 16.75 10.9157 17.5 9.99903 17.5C9.08236 17.5 8.33236 16.75 8.33236 15.8333ZM15.299 12.3C15.7907 11.8083 15.7907 11.0167 15.299 10.5333C12.374 7.60833 7.61569 7.60833 4.69069 10.5333C4.19903 11.025 4.19903 11.8167 4.69069 12.3C5.18236 12.7833 5.97403 12.7917 6.45736 12.3C8.40736 10.35 11.5824 10.35 13.5324 12.3C13.774 12.5417 14.099 12.6667 14.4157 12.6667C14.7324 12.6667 15.0574 12.5417 15.299 12.3ZM19.6074 8.40833C20.1074 7.93333 20.124 7.14167 19.649 6.64167C19.574 6.56667 19.499 6.48333 19.424 6.40833C16.9074 3.89167 13.5574 2.5 9.99903 2.5C6.44069 2.5 3.09069 3.88333 0.574025 6.4C0.499025 6.475 0.424025 6.55833 0.349025 6.63333C-0.125975 7.13333 -0.109308 7.925 0.390692 8.4C0.890692 8.875 1.68236 8.85833 2.15736 8.35833L2.34069 8.16667C4.39069 6.11667 7.10736 4.99167 9.99903 4.99167C12.8907 4.99167 15.6157 6.11667 17.6657 8.16667L17.849 8.35C18.0907 8.60833 18.424 8.73333 18.749 8.73333C19.0574 8.73333 19.374 8.61667 19.6157 8.39167L19.6074 8.40833Z" fill="white"/>
</svg>
